<svg width="32" height="32" viewBox="0 0 32 32" fill="none" xmlns="http://www.w3.org/2000/svg">
<rect width="32" height="32" rx="16" fill="#EAECF0"/>
<path fill-rule="evenodd" clip-rule="evenodd" d="M12.606 20.5253L19.16 13.9713L19.16 17.6969C19.16 18.1392 19.5175 18.4968 19.9599 18.4968C20.4022 18.4968 20.7598 18.1392 20.7598 17.6969L20.7598 12.04C20.7598 11.5977 20.4022 11.2401 19.9599 11.2401L14.303 11.2401C14.0824 11.2401 13.8822 11.3295 13.7373 11.4743C13.5925 11.6191 13.5031 11.8194 13.5031 12.04C13.5031 12.4824 13.8607 12.8399 14.303 12.8399L18.0286 12.8399L11.4746 19.3939C11.1618 19.7068 11.1618 20.2125 11.4746 20.5253C11.7874 20.8381 12.2931 20.8381 12.606 20.5253Z" fill="#101828"/>
</svg>
