<svg width="16" height="16" viewBox="0 0 16 16" fill="none" xmlns="http://www.w3.org/2000/svg">
<g id="arrow-up_minor">
<path id="Primary fill" fill-rule="evenodd" clip-rule="evenodd" d="M8.79995 13.6001V4.33125L11.4344 6.96565C11.7472 7.27845 12.2528 7.27845 12.5656 6.96565C12.8784 6.65285 12.8784 6.14725 12.5656 5.83445L8.56555 1.83445C8.25275 1.52165 7.74715 1.52165 7.43435 1.83445L3.43435 5.83445C3.27835 5.99045 3.19995 6.19525 3.19995 6.40005C3.19995 6.60485 3.27835 6.80965 3.43435 6.96565C3.74715 7.27845 4.25275 7.27845 4.56555 6.96565L7.19995 4.33125V13.6001C7.19995 14.0425 7.55755 14.4001 7.99995 14.4001C8.44235 14.4001 8.79995 14.0425 8.79995 13.6001Z" fill="#008060"/>
</g>
</svg>
