<svg width="16" height="16" viewBox="0 0 16 16" fill="none" xmlns="http://www.w3.org/2000/svg">
<g id="arrow-down_minor">
<path id="Primary fill" fill-rule="evenodd" clip-rule="evenodd" d="M8.56555 14.1656L12.5656 10.1656C12.8784 9.85277 12.8784 9.34718 12.5656 9.03438C12.2528 8.72158 11.7472 8.72158 11.4344 9.03438L8.79995 11.6688V2.39998C8.79995 1.95758 8.44235 1.59998 7.99995 1.59998C7.55755 1.59998 7.19995 1.95758 7.19995 2.39998V11.6688L4.56555 9.03438C4.25275 8.72158 3.74715 8.72158 3.43435 9.03438C3.27835 9.19038 3.19995 9.39517 3.19995 9.59998C3.19995 9.80478 3.27835 10.0096 3.43435 10.1656L7.43435 14.1656C7.74715 14.4784 8.25275 14.4784 8.56555 14.1656Z" fill="#D92D20"/>
</g>
</svg>
