<svg width="91" height="102" viewBox="0 0 91 102" fill="none" xmlns="http://www.w3.org/2000/svg">
<path d="M86.5519 58.5251C86.5519 70.398 81.7024 81.1003 73.9265 88.7926C66.3178 96.4013 55.7827 101 44.1606 101C32.6221 101 22.087 96.3177 14.3947 88.7926C6.61878 81.1003 1.76929 70.398 1.76929 58.5251C1.76929 35.0301 20.7492 16.0502 44.1606 16.0502C67.572 16.0502 86.5519 35.1137 86.5519 58.5251Z" fill="#F1F3F9" stroke="#D6DBE8" stroke-width="1.67224" stroke-miterlimit="10"/>
<path d="M38.2821 20.4072L35.1376 31.4984L42.6647 36.7151L42.1354 49.459L51.6361 32.0228L47.2232 28.4971L52.2701 20.4072H57.9359L75.0763 39.0526L75.7452 92.8988C75.7452 94.7383 74.2402 96.1597 72.4007 96.1597H19.8924C18.0529 96.1597 16.5479 94.6546 16.5479 92.8988V23.6681C16.5479 21.8286 18.0529 20.4072 19.8924 20.4072H38.2821Z" fill="white" stroke="#D6DBE8" stroke-width="1.67224" stroke-miterlimit="10" stroke-linejoin="round"/>
<path d="M82.8732 30.6821C84.7664 30.6821 86.3013 29.1473 86.3013 27.254C86.3013 25.3607 84.7664 23.8259 82.8732 23.8259C80.9799 23.8259 79.4451 25.3607 79.4451 27.254C79.4451 29.1473 80.9799 30.6821 82.8732 30.6821Z" fill="#F1F3F9"/>
<path d="M87.8897 17.3043C89.1827 17.3043 90.2309 16.2561 90.2309 14.9631C90.2309 13.6702 89.1827 12.622 87.8897 12.622C86.5967 12.622 85.5486 13.6702 85.5486 14.9631C85.5486 16.2561 86.5967 17.3043 87.8897 17.3043Z" fill="#F1F3F9"/>
<path d="M34.8202 31.6947H24.7032C24.1179 31.6947 23.6162 31.193 23.6162 30.6077C23.6162 30.0224 24.1179 29.5208 24.7032 29.5208H34.8202C35.4055 29.5208 35.9072 30.0224 35.9072 30.6077C35.9072 31.193 35.4055 31.6947 34.8202 31.6947Z" fill="#D6DBE8"/>
<path d="M34.4022 37.7149H24.7032C24.1179 37.7149 23.6162 37.2133 23.6162 36.628C23.6162 36.0427 24.1179 35.541 24.7032 35.541H34.3186C34.9038 35.541 35.4055 36.0427 35.4055 36.628C35.4055 37.2133 34.9038 37.7149 34.4022 37.7149Z" fill="#D6DBE8"/>
<path d="M57.2285 20.4072V35.2901C57.2285 37.3804 59.068 39.0526 61.1583 39.0526H74.369" fill="#D6DBE8"/>
<path d="M35.448 15.4362L32.2861 10.6766" stroke="#A2A9BE" stroke-width="1.67224"/>
<path d="M43.8805 13.0564L44.252 1" stroke="#A2A9BE" stroke-width="1.67224"/>
<path d="M51.4407 15.5485L56.488 4.59314" stroke="#A2A9BE" stroke-width="1.67224"/>
<path d="M34.2702 75.7317C33.919 75.7317 33.638 75.5912 33.3571 75.3805C32.8654 74.8887 32.8654 74.0458 33.3571 73.5541C36.5883 70.3931 40.8733 68.637 45.4392 68.637C50.0051 68.637 54.29 70.3931 57.5213 73.5541C58.013 74.0458 58.013 74.8887 57.5213 75.3805C57.0296 75.8722 56.1866 75.8722 55.6949 75.3805C52.9554 72.6409 49.3026 71.1658 45.4392 71.1658C41.5757 71.1658 37.923 72.6409 35.1834 75.3805C34.9025 75.5912 34.6215 75.7317 34.2702 75.7317Z" fill="#AAB1C5"/>
<path d="M38.6957 56.906L40.3815 55.2202C40.8733 54.7285 40.8733 53.8855 40.3815 53.3938C39.8898 52.9021 39.0469 52.9021 38.5552 53.3938L36.8693 55.0797L35.1834 53.3938C34.6917 52.9021 33.8488 52.9021 33.3571 53.3938C32.8654 53.8855 32.8654 54.7285 33.3571 55.2202L35.0429 56.906L33.3571 58.5919C32.8654 59.0836 32.8654 59.9266 33.3571 60.4183C33.638 60.6993 33.919 60.7695 34.2702 60.7695C34.6215 60.7695 34.9025 60.629 35.1834 60.4183L36.8693 58.7324L38.5552 60.4183C38.8362 60.6993 39.1171 60.7695 39.4684 60.7695C39.8196 60.7695 40.1006 60.629 40.3815 60.4183C40.8733 59.9266 40.8733 59.0836 40.3815 58.5919L38.6957 56.906Z" fill="#AAB1C5"/>
<path d="M55.7652 56.906L57.4511 55.2202C57.9428 54.7285 57.9428 53.8855 57.4511 53.3938C56.9594 52.9021 56.1165 52.9021 55.6248 53.3938L53.9389 55.0797L52.253 53.3938C51.7613 52.9021 50.9184 52.9021 50.4266 53.3938C49.9349 53.8855 49.9349 54.7285 50.4266 55.2202L52.1125 56.906L50.4266 58.5919C49.9349 59.0836 49.9349 59.9266 50.4266 60.4183C50.7076 60.6993 50.9886 60.7695 51.3398 60.7695C51.691 60.7695 51.972 60.629 52.253 60.4183L53.9389 58.7324L55.6248 60.4183C55.9057 60.6993 56.1867 60.7695 56.5379 60.7695C56.8892 60.7695 57.1701 60.629 57.4511 60.4183C57.9428 59.9266 57.9428 59.0836 57.4511 58.5919L55.7652 56.906Z" fill="#AAB1C5"/>
</svg>
