<svg width="290" height="158" viewBox="0 0 290 158" fill="none" xmlns="http://www.w3.org/2000/svg">
<g clip-path="url(#clip0_3546_32632)">
<rect width="290" height="158" rx="12" fill="#ECF6F2"/>
<g clip-path="url(#clip1_3546_32632)">
<path d="M120.344 37.37C120.804 34.978 124.07 30.7 129.774 30.838C136.398 31.022 139.204 38.474 138.1 44.868L136.352 47.122C136.352 47.122 130.326 45.052 131.568 38.152C131.522 38.198 120.804 39.716 120.344 37.37Z" fill="#101828"/>
<path d="M59.302 112.35C59.256 112.258 59.118 112.166 58.98 112.12C58.98 111.614 58.796 111.108 58.428 110.97C58.06 110.878 57.554 111.154 57.416 111.844C57.14 111.89 56.91 111.982 56.91 112.166C56.91 112.212 56.864 112.35 56.864 112.534C56.864 111.614 56.864 110.97 56.864 110.832C56.818 109.774 55.944 109.912 55.944 109.912C55.852 108.808 54.38 109.13 54.334 109.774C54.334 109.774 53.368 109.636 53.276 110.004C53.138 110.556 53.046 114.696 53.092 114.834C53.184 115.248 53.506 115.156 53.46 115.478C53.414 115.8 53.092 121.78 53.092 121.78L54.288 135.856L55.024 136.086C55.024 136.546 55.024 136.822 55.07 136.914C55.944 138.478 57.646 137.466 57.646 136.914C57.646 136.362 58.796 121.182 58.888 119.526C58.98 117.916 59.67 112.856 59.302 112.35Z" fill="white"/>
<path d="M48.584 104.622C47.664 104.116 45.732 104.76 45.272 106.554C43.478 105.174 40.534 104.714 39.246 108.532C37.958 112.35 39.108 114.788 41.776 117.088C44.444 119.342 46.192 117.87 46.376 118.284C46.422 118.33 46.514 118.606 46.652 119.066C47.25 118.33 49.136 118.008 51.298 117.962C50.148 111.2 48.998 104.852 48.584 104.622ZM44.858 114.604C44.398 115.248 42.972 115.432 42.144 113.5C41.684 112.442 41.914 109.268 43.156 109.682C44.214 110.004 45.686 113.5 44.858 114.604Z" fill="#006E52"/>
<path d="M48.722 65.476C51.252 61.474 59.21 59.634 64.546 62.532C68.318 64.556 68.87 66.166 68.318 70.306C67.766 74.446 63.396 81.99 55.392 82.818C50.93 83.278 48.4 82.082 46.974 79.368C45.226 76.056 45.456 70.674 48.722 65.476ZM137.686 49.238C140.63 47.582 141.642 45.052 140.814 42.936C140.032 41.05 136.766 44.04 136.352 45.926C136.352 45.926 133.132 44.178 132.994 42.568C132.856 40.958 133.132 37.048 132.764 36.864C132.396 36.68 121.816 38.428 120.344 37.37C120.344 37.37 119.93 38.612 119.746 45.512C119.562 53.194 121.31 60.554 128.854 58.714C131.706 58.024 137.686 49.238 137.686 49.238Z" fill="white"/>
<path d="M266.118 23.524V118.284C266.118 119.204 265.336 119.986 264.416 119.986H141.136C140.216 119.986 139.434 119.25 139.434 118.284V23.524C139.434 22.604 140.17 21.822 141.136 21.822H264.37C265.336 21.822 266.118 22.558 266.118 23.524Z" fill="white"/>
<path d="M161.652 113.868C161.652 113.868 155.258 120.814 144.816 122.838C140.768 123.62 136.352 123.114 132.396 122.194C126.094 120.768 121.034 118.238 121.034 118.238C121.218 113.178 120.114 105.864 119.654 102.184C119.608 101.724 119.562 101.31 119.516 100.988C119.424 99.976 119.194 98.642 118.964 97.124C118.688 95.238 118.366 93.03 118.182 90.868V90.822C118.09 89.488 118.044 88.154 118.09 86.912C118.09 86.912 150.474 83.324 153.188 86.176C153.556 86.544 153.97 87.372 154.43 88.476C155.442 90.914 156.638 94.732 157.742 98.734C159.904 106.094 161.652 113.868 161.652 113.868Z" fill="#006E52"/>
<path d="M121.126 121.964C122.184 128.45 120.574 133.464 120.574 133.464C120.574 133.464 173.75 134.568 173.612 134.2C173.474 133.786 172.002 123.436 173.06 121.228L121.126 121.964Z" fill="#006E52"/>
<path d="M38.142 150.944C34.968 151.082 31.886 147.54 31.84 146.39C31.748 145.24 47.894 130.796 52.816 130.29C57.784 129.784 160.226 129.738 178.718 129.462C197.21 129.14 209.308 129.37 209.308 129.37C209.308 129.37 218.048 143.768 217.772 146.068C217.45 148.368 211.332 150.53 209.998 151.036C208.664 151.542 38.142 150.944 38.142 150.944ZM148.542 64.418C155.212 58.438 160.548 53.194 164.412 49.376C168.322 45.558 170.116 42.89 174.854 40.452C179.592 38.014 181.248 38.658 190.54 39.118C190.54 39.118 193.53 34.334 200.292 31.758C207.054 29.182 214.92 29.55 222.188 35.576C229.456 41.648 237.046 49.422 242.244 60.968C247.442 72.514 247.442 78.31 247.442 78.31C247.442 78.31 246.844 95.974 236.724 98.412C226.604 100.85 206.318 98.412 206.318 98.412L202.224 91.696C202.224 91.696 197.256 81.208 195.278 77.252C193.3 73.296 193.944 71.732 183.18 64.05C183.18 64.05 173.52 70.95 167.402 78.264L148.542 64.418Z" fill="white"/>
<path d="M131.522 117.686C129.728 116.49 125.634 114.88 121.908 114.88C118.504 114.88 115.514 116.26 113.766 119.066L120.206 132.222C120.206 132.222 123.426 126.104 124.162 125.23C124.162 125.23 126.048 125 126.646 125.322C127.52 125.736 130.372 127.254 134.65 123.068L131.522 117.686Z" fill="white"/>
<path d="M176.878 121.458C170.668 128.266 144.954 128.588 133.592 126.242C133.408 125.322 132.948 123.804 132.396 122.194C131.338 119.204 130.05 115.984 130.05 115.984C132.212 116.076 139.434 114.374 144.908 112.626C150.382 110.878 158.892 108.808 158.892 108.808C158.478 105.22 157.512 101.632 156.362 98.504C154.384 93.03 152.038 88.982 151.946 88.982C151.808 88.982 118.964 97.17 118.964 97.17C118.734 97.998 118.458 98.872 118.136 99.792C116.756 103.748 114.226 108.67 109.58 113.96L92.238 107.014C94.354 102.046 96.332 97.676 98.218 93.812C99.782 90.546 101.254 87.648 102.68 85.072C108.66 74.032 113.122 68.788 116.388 66.396C121.31 62.716 128.854 62.256 128.854 62.256L140.354 60.784C149.14 60.094 155.35 61.336 161.744 66.212C166.804 70.076 171.496 78.908 174.854 86.498C175.728 88.522 176.556 90.408 177.246 92.11C177.798 93.444 178.35 94.87 178.902 96.388C181.708 104.162 183.64 114.098 176.878 121.458Z" fill="#006E52"/>
<path d="M108.292 104.484C109.258 104.714 123.61 135.672 123.61 136.132C123.61 136.592 70.0659 137.282 69.6519 136.73C69.2379 136.132 57.2779 105.036 57.9679 104.53C58.6579 103.978 106.958 104.162 108.292 104.484Z" fill="#101828"/>
<path d="M138.33 47.444C138.008 51.998 138.744 58.162 140.4 60.646C140.4 60.646 139.158 63.958 135.064 64.648C130.97 65.338 129.544 63.728 128.946 62.118C128.946 62.118 128.808 57.886 128.486 56.736C128.118 55.586 138.33 47.444 138.33 47.444Z" fill="white"/>
<path d="M177.936 17.452C178.028 17.498 185.664 21.638 186.584 25.18L184.008 27.802C184.008 27.802 177.292 24.26 177.936 17.452Z" fill="#101828"/>
<path d="M184.974 29.688C182.26 35.254 178.35 37.692 174.762 37.37C171.174 37.048 168.598 32.908 167.54 26.054C166.85 21.822 167.034 19.062 167.264 17.59C169.84 17.084 173.934 16.348 178.718 19.016C180.236 25.226 183.824 26.882 183.824 26.882C184.008 26.146 184.652 25.456 185.434 24.996C186.722 24.214 188.47 23.8 189.62 24.168C190.218 24.352 190.632 24.72 190.724 25.364C191.046 27.848 186.584 29.55 184.974 29.688Z" fill="white"/>
<path d="M179.454 38.842C177.568 42.568 178.718 46.846 182.95 46.34C187.182 45.88 190.126 43.442 191.414 41.648C191.414 41.648 193.024 44.546 196.428 44.04C201.534 43.212 201.948 33.046 197.394 32.448C192.886 31.85 179.454 38.842 179.454 38.842Z" fill="#006E52"/>
<path d="M187.688 28.768C189.85 31.16 195.738 34.104 195.738 34.104C195.094 36.174 193.898 41.924 190.954 43.028C189.712 43.488 187.09 43.35 184.882 40.452C182.674 37.554 178.12 33.552 178.12 33.552L185.894 27.296L187.688 28.768Z" fill="white"/>
<path d="M165.24 23.34C167.908 22.972 171.496 23.018 171.68 22.88C171.864 22.788 174.486 17.682 176.464 17.176C176.464 17.176 174.762 14.094 167.908 16.716C165.746 17.82 164.228 23.478 165.24 23.34Z" fill="#101828"/>
<path d="M189.62 24.122C188.47 23.7999 186.722 24.168 185.434 24.95C183.134 22.052 180.834 20.166 178.718 19.016C173.934 16.348 169.84 17.084 167.264 17.59C165.47 17.774 164.228 16.2559 164.366 13.772C164.458 12.208 166.712 7.37795 173.336 6.77995C180.19 6.13595 181.984 10.4599 186.078 14.4619C189.39 17.7279 190.862 17.038 191.046 19.798C191.184 21.822 190.264 23.2939 189.62 24.122Z" fill="#006E52"/>
<path d="M183.456 12.53C184.56 10.46 187.044 8.71198 187.412 9.86198C187.78 10.874 185.066 11.242 183.824 13.22L183.456 12.53Z" fill="#006E52"/>
<path d="M246.2 101.172C245.188 106.692 243.854 112.304 242.52 119.986H221.728C221.82 116.95 221.682 111.706 220.026 106.14C220.026 106.14 218.554 112.488 217.174 119.986H195.416C197.026 111.752 200.614 96.02 202.316 91.742C202.316 91.742 205.674 96.066 215.242 96.066C224.81 96.066 242.336 91.926 247.488 78.356C247.488 78.356 249.052 85.44 246.2 101.172Z" fill="#101828"/>
<path d="M219.336 59.036C219.336 59.036 218.14 69.156 212.712 80.472C207.33 91.788 198.682 96.848 186.216 96.802C173.796 96.756 169.15 93.858 161.422 85.946C160.64 85.118 159.812 84.244 158.938 83.324C157.604 84.888 152.636 83.186 151.854 81.576C150.98 79.736 151.302 77.206 152.406 74.952C150.014 75.32 148.818 76.102 146.518 76.654C143.114 77.528 141.964 75.32 142.746 74.952C145.69 73.572 152.774 70.352 160.456 72.33C162.894 72.928 164.642 73.664 166.666 74.354C170.99 75.872 176.464 77.482 192.15 78.356C192.15 78.356 193.346 73.986 194.818 70.306C196.29 66.672 197.072 61.658 197.164 60.738C197.21 59.772 206.134 51.584 219.336 59.036Z" fill="white"/>
<path d="M172.876 32.402C174.946 32.77 175.268 30.654 175.406 30.516C175.59 30.424 176.372 33.552 175.084 33.966C173.796 34.38 172.508 32.31 172.876 32.402ZM143.344 24.858C143.298 25.318 142.884 25.686 142.424 25.686C141.964 25.686 141.642 25.318 141.688 24.858C141.734 24.398 142.148 24.03 142.608 24.03C143.068 24.03 143.39 24.398 143.344 24.858ZM150.198 24.904C150.198 25.318 149.83 25.686 149.37 25.686C148.91 25.686 148.542 25.318 148.588 24.904C148.588 24.49 148.956 24.122 149.416 24.122C149.83 24.122 150.198 24.49 150.198 24.904Z" fill="#101828"/>
<path d="M145.874 25.686C146.331 25.686 146.702 25.3153 146.702 24.858C146.702 24.4007 146.331 24.03 145.874 24.03C145.417 24.03 145.046 24.4007 145.046 24.858C145.046 25.3153 145.417 25.686 145.874 25.686Z" fill="#101828"/>
<path d="M101.622 33.0461C102.266 34.7481 106.728 34.8401 106.774 34.4261C106.82 34.0121 104.98 33.5981 104.244 30.5161C104.244 30.5161 107.418 24.3521 101.898 19.7521C96.194 14.9221 88.696 19.8441 88.328 25.8701C88.006 32.9541 96.01 38.0141 101.622 33.0461Z" fill="white"/>
<path d="M95.826 30.976C95.872 31.298 96.148 31.528 96.47 31.528C96.792 31.528 97.022 31.298 96.976 30.976C96.93 30.654 96.654 30.424 96.332 30.424C96.056 30.424 95.78 30.7 95.826 30.976Z" fill="#101828"/>
<path d="M113.444 65.982C111.834 66.304 110.27 68.328 111.972 72.56C113.674 76.792 114.64 71.916 114.64 71.916C115.146 73.848 116.572 73.434 116.986 70.536C116.986 70.536 118.044 71.594 118.642 71.548C119.286 71.502 118.872 69.156 118.872 69.156C118.872 69.156 119.884 70.352 120.528 69.662C121.172 68.972 120.942 62.486 119.516 62.762C119.516 62.762 117.584 59.588 115.744 63.59C115.744 63.544 113.95 62.44 113.444 65.982Z" fill="white"/>
<path d="M173.75 26.33C173.796 26.744 174.118 27.02 174.394 26.974C174.716 26.928 174.9 26.56 174.854 26.192C174.808 25.778 174.486 25.502 174.21 25.548C173.934 25.594 173.704 25.916 173.75 26.33ZM126.508 45.88C126.508 46.294 126.738 46.616 127.06 46.616C127.382 46.616 127.612 46.294 127.612 45.88C127.612 45.466 127.382 45.144 127.06 45.144C126.784 45.144 126.508 45.466 126.508 45.88ZM168.322 27.342C168.368 27.71 168.644 27.94 168.92 27.894C169.196 27.848 169.38 27.526 169.334 27.204C169.288 26.836 169.012 26.606 168.736 26.652C168.46 26.652 168.276 26.974 168.322 27.342ZM121.31 46.524C121.31 46.892 121.54 47.168 121.816 47.168C122.092 47.168 122.322 46.892 122.322 46.524C122.322 46.156 122.092 45.88 121.816 45.88C121.54 45.88 121.31 46.156 121.31 46.524ZM123.61 136.132C126.14 135.166 140.998 130.796 140.998 130.474C140.998 130.336 139.894 129.416 139.48 129.37C138.698 129.232 120.758 129.462 120.344 129.37C119.884 129.278 123.61 136.132 123.61 136.132Z" fill="#101828"/>
<path d="M154.154 129.048C157.098 130.704 166.068 135.212 166.39 135.626C166.712 136.04 166.942 136.546 166.666 137.052C166.39 137.558 165.194 136.776 164.78 136.5C164.366 136.224 157.42 133.28 150.474 140.18C147.714 138.202 143.988 136.684 138.376 134.614C137.962 134.476 139.066 132.958 139.434 132.728C139.802 132.498 146.288 128.542 154.154 129.048Z" fill="white"/>
<path d="M155.442 130.658C158.662 129.048 164.458 127.76 168.92 129.002C173.382 130.244 180.052 134.246 180.19 134.568C180.328 134.89 179.086 135.764 178.902 135.626C178.764 135.488 176.556 134.338 173.612 134.66C170.668 134.982 169.472 135.442 167.816 137.052C167.218 137.65 166.114 136.546 166.39 135.58C166.16 135.212 155.442 130.658 155.442 130.658ZM231.526 131.808C231.48 131.624 230.744 131.302 228.95 131.348C228.95 131.026 228.904 130.658 228.858 130.244C229.456 130.06 229.824 129.968 229.962 129.876C230.744 129.462 230.1 126.564 229.18 126.288C228.168 125.966 211.838 126.426 208.204 126.334C208.204 126.334 197.854 129.002 189.712 130.842C189.712 130.842 189.758 130.888 189.804 130.934C190.172 131.348 190.356 132.176 190.172 132.866C188.746 133.234 186.722 133.786 186.262 134.016C185.526 134.43 186.17 136.73 186.492 136.776C186.538 136.776 186.814 136.776 187.274 136.776C186.538 138.294 187.642 140.134 187.918 140.226C188.24 140.318 212.482 140.272 213.264 140.272C214.046 140.272 231.296 134.936 231.48 134.798C231.664 134.66 231.572 132.038 231.526 131.808Z" fill="white"/>
<path d="M26.596 97.814C26.688 98.918 25.998 99.838 25.032 99.838C24.066 99.838 23.238 98.918 23.146 97.814C23.054 96.71 23.744 95.79 24.71 95.79C25.676 95.836 26.504 96.71 26.596 97.814Z" fill="#101828"/>
<path d="M26.5039 140.778C27.1939 142.25 29.494 142.296 39.66 142.296C49.826 142.296 52.3099 140.18 52.172 139.444C52.034 138.708 48.216 133.142 38.878 133.418C28.804 133.648 25.9519 139.628 26.5039 140.778Z" fill="white"/>
<path d="M42.926 60.048C44.352 58.484 46.238 59.496 50.102 63.314C53.966 67.178 53.23 68.788 52.448 69.478C51.666 70.214 49.78 70.766 46.054 67.224C42.374 63.728 41.868 61.198 42.926 60.048Z" fill="#006E52"/>
<path d="M46.33 102.966C46.192 102.184 49.596 102.23 49.78 102.506C50.332 103.564 56.358 137.052 56.128 137.328C55.898 137.604 52.724 137.972 52.586 137.328C52.494 136.684 46.652 104.484 46.33 102.966Z" fill="#101828"/>
<path d="M178.948 96.342C173.796 98.688 163.538 99.424 157.834 98.78C157.328 98.734 156.822 98.642 156.362 98.55C156.316 98.55 156.27 98.55 156.224 98.504C150.658 102.598 130.878 105.726 119.7 102.23C119.654 101.77 119.608 101.356 119.562 101.034C119.47 100.022 119.24 98.688 119.01 97.17C118.78 97.998 118.504 98.872 118.182 99.792C111.328 100.022 104.52 99.286 98.264 93.766C99.828 90.5 101.3 87.602 102.726 85.026C106.452 88.2 112.846 90.27 118.136 89.58L118.228 90.914V90.96C134.834 93.076 143.574 91.466 151.716 88.844C152.544 88.798 153.51 88.706 154.522 88.522C157.65 88.016 161.192 87.004 162.204 86.728L174.9 86.406C175.774 88.43 176.602 90.316 177.292 92.018C177.844 93.352 178.396 94.824 178.948 96.342Z" fill="white"/>
<path d="M247.488 78.356C247.58 78.356 247.718 77.758 247.488 75.826C247.212 73.894 246.568 70.582 244.636 65.384C244.176 64.142 243.578 62.716 242.888 61.106C242.52 60.324 242.152 59.45 241.738 58.576C241.278 57.702 240.864 56.828 240.312 55.908C238.288 52.274 235.62 48.364 232.538 44.822C229.456 41.28 226.006 38.06 222.786 35.346C219.52 32.586 215.978 30.93 213.264 30.332C211.654 29.964 210.182 29.78 208.848 29.78C208.664 29.78 208.526 29.78 208.342 29.78C208.204 29.78 208.02 29.78 207.882 29.78C207.56 29.78 207.284 29.826 206.962 29.826C206.364 29.872 205.812 29.918 205.306 30.01C203.236 30.332 201.81 30.838 200.752 31.252C200.246 31.436 199.832 31.666 199.464 31.85C199.142 32.034 198.866 32.172 198.682 32.264C198.314 32.494 198.176 32.586 198.222 32.632C198.268 32.678 198.406 32.678 198.82 32.54C199.004 32.494 199.28 32.402 199.602 32.264C199.924 32.126 200.338 31.942 200.844 31.804C201.12 31.712 201.396 31.62 201.672 31.528C201.994 31.436 202.316 31.344 202.684 31.252C203.42 31.068 204.248 30.884 205.26 30.792C205.766 30.7 206.272 30.7 206.824 30.654C207.1 30.654 207.376 30.654 207.698 30.608C207.974 30.608 208.296 30.608 208.618 30.608C209.86 30.608 211.286 30.792 212.804 31.16C215.38 31.758 218.784 33.276 221.912 35.944C225.086 38.612 228.49 41.786 231.572 45.282C233.09 47.03 234.516 48.824 235.804 50.664C237.092 52.504 238.288 54.344 239.254 56.092C241.278 59.634 242.658 62.992 243.624 65.384C245.694 70.536 246.476 73.848 246.89 75.734C247.304 77.758 247.35 78.356 247.488 78.356ZM179.5 38.842C179.5 38.75 179.224 38.658 178.35 38.796C177.476 38.934 176.004 39.348 173.842 40.544C172.83 41.096 171.404 41.97 170.024 43.166C168.598 44.362 167.218 45.88 165.792 47.352C164.366 48.824 162.894 50.25 161.56 51.538C160.226 52.826 159.076 53.976 158.202 54.804C154.154 58.76 153.51 59.634 153.694 59.818C153.878 60.002 154.706 59.404 158.846 55.54C159.72 54.712 160.916 53.608 162.25 52.32C163.584 51.032 165.102 49.652 166.528 48.134C167.954 46.662 169.334 45.144 170.668 43.994C172.002 42.798 173.29 41.97 174.302 41.372C176.372 40.13 177.752 39.624 178.58 39.348C179.27 39.072 179.5 38.934 179.5 38.842ZM171.358 74.17C171.542 74.354 171.956 74.124 173.612 72.652C174.394 71.962 175.82 70.72 177.246 69.478C178.672 68.282 180.144 67.04 181.018 66.35C182.996 64.694 183.318 64.28 183.18 64.05C183.042 63.866 182.536 64.004 180.466 65.568C179.592 66.258 178.074 67.408 176.648 68.65C175.222 69.892 173.796 71.18 173.06 71.916C171.404 73.526 171.174 74.032 171.358 74.17ZM160.64 85.118C160.548 85.21 160.916 85.716 162.388 87.28C163.124 88.062 164.136 89.12 165.608 90.454C165.976 90.776 166.39 91.144 166.804 91.466C167.034 91.65 167.218 91.834 167.494 92.018C167.724 92.202 168 92.386 168.23 92.57C169.242 93.306 170.438 94.042 171.864 94.732C173.198 95.376 174.854 95.974 176.786 96.434C178.718 96.894 180.88 97.17 183.18 97.262C185.48 97.354 187.964 97.446 190.494 97.17C193.024 96.94 195.6 96.388 198.084 95.468C199.326 95.008 200.522 94.456 201.672 93.812C202.27 93.49 202.776 93.122 203.374 92.8C203.926 92.432 204.432 92.064 204.938 91.65C206.962 90.04 208.664 88.154 210.044 86.222C211.424 84.29 212.482 82.312 213.356 80.518C214.184 78.678 214.92 77.022 215.426 75.596C216.714 72.238 217.542 69.478 218.094 67.316C218.646 65.108 218.968 63.452 219.198 62.256C219.612 59.818 219.52 59.128 219.428 59.082C219.29 59.082 219.152 59.68 218.6 62.072C218.324 63.268 217.956 64.832 217.358 66.994C216.76 69.156 215.932 71.824 214.644 75.09C214.506 75.458 214.368 75.826 214.23 76.194C214.092 76.562 213.908 76.976 213.724 77.344C213.402 78.172 212.988 79 212.574 79.92C211.746 81.714 210.688 83.6 209.4 85.486C208.066 87.326 206.456 89.166 204.57 90.73C202.684 92.294 200.43 93.536 198.084 94.456C195.738 95.376 193.208 95.882 190.77 96.158C189.528 96.296 188.332 96.342 187.136 96.388C186.538 96.388 185.94 96.388 185.342 96.388C184.744 96.388 184.192 96.388 183.594 96.342C179.04 96.158 175.13 95.33 172.6 94.088C171.91 93.812 171.266 93.444 170.668 93.122C170.07 92.754 169.518 92.432 169.012 92.064C168 91.374 167.126 90.684 166.344 90.04C165.976 89.718 165.608 89.442 165.286 89.166C164.964 88.89 164.642 88.614 164.366 88.338C163.814 87.832 163.354 87.372 162.94 87.004C161.238 85.44 160.686 85.026 160.64 85.118ZM151.854 81.576C151.946 81.53 151.992 81.484 151.946 81.3C151.946 81.116 151.854 80.84 151.808 80.38C151.762 79.966 151.67 79.184 151.762 78.356C151.854 77.574 152.084 76.792 152.222 76.332C152.544 75.274 152.59 75.044 152.406 74.952C152.268 74.86 151.992 74.998 151.532 76.056C151.348 76.516 151.072 77.344 150.98 78.218C150.888 79.092 150.98 79.966 151.118 80.426C151.256 80.932 151.394 81.208 151.532 81.392C151.67 81.576 151.762 81.622 151.854 81.576Z" fill="#101828"/>
<path d="M142.746 74.952C142.792 75.044 143.298 74.906 144.862 74.308C145.644 74.032 146.748 73.618 148.22 73.204C148.588 73.112 149.002 72.974 149.416 72.882C149.83 72.79 150.29 72.698 150.75 72.606C151.21 72.514 151.716 72.468 152.268 72.376C152.82 72.33 153.372 72.238 153.97 72.238C155.028 72.146 156.224 72.192 157.604 72.33C158.938 72.468 160.41 72.836 161.974 73.296C163.538 73.756 165.148 74.4 166.85 74.998C168.552 75.596 170.346 76.148 172.186 76.562C175.866 77.39 179.592 77.896 183.042 78.218C184.79 78.402 186.4 78.494 187.964 78.632C189.62 78.724 191.184 78.816 192.564 78.908C192.748 78.31 192.886 77.804 192.978 77.39C193.07 77.068 193.162 76.746 193.254 76.516C193.392 76.01 193.53 75.596 193.668 75.228C194.082 73.894 194.496 72.652 194.864 71.594C195.278 70.536 195.646 69.57 195.876 68.696C196.382 66.948 196.658 65.614 196.842 64.648C197.164 62.716 197.118 62.164 197.026 62.118C196.888 62.118 196.75 62.578 196.244 64.464C196.014 65.384 195.692 66.672 195.14 68.328C195.002 68.742 194.864 69.202 194.68 69.662C194.496 70.122 194.312 70.628 194.082 71.18C193.668 72.238 193.254 73.434 192.794 74.814C192.656 75.228 192.518 75.642 192.38 76.194C192.242 76.654 192.058 77.206 191.874 77.942C190.77 77.85 189.482 77.804 188.102 77.712C186.584 77.574 184.974 77.482 183.272 77.298C179.868 76.976 176.188 76.47 172.6 75.688C170.806 75.274 169.058 74.768 167.402 74.216C165.746 73.618 164.09 73.02 162.526 72.56C160.962 72.1 159.444 71.686 158.018 71.548C156.592 71.41 155.35 71.364 154.246 71.456C151.716 71.594 149.738 72.146 148.22 72.606C146.702 73.112 145.598 73.572 144.77 73.94C143.114 74.538 142.7 74.86 142.746 74.952Z" fill="#101828"/>
<path d="M166.666 74.354C166.574 74.354 166.482 74.446 166.436 74.768C166.39 74.952 166.344 75.182 166.298 75.412C166.252 75.55 166.252 75.734 166.206 75.872C166.16 76.056 166.114 76.24 166.068 76.47C165.838 77.298 165.378 78.77 164.734 80.15C164.09 81.53 163.262 82.864 162.756 83.646C162.158 84.52 161.79 85.072 161.606 85.394C161.422 85.716 161.422 85.854 161.468 85.9C161.56 85.946 161.652 85.946 161.928 85.67C162.204 85.44 162.664 84.934 163.308 84.06C163.86 83.324 164.734 81.944 165.424 80.518C166.114 79.092 166.574 77.528 166.758 76.654C166.804 76.424 166.85 76.194 166.85 76.01C166.85 75.826 166.896 75.642 166.896 75.504C166.942 75.182 166.896 74.952 166.896 74.768C166.85 74.492 166.758 74.354 166.666 74.354ZM157.052 77.206C157.006 77.16 157.006 77.16 156.914 77.16C156.822 77.206 156.776 77.252 156.684 77.344C156.5 77.574 156.316 77.942 156.086 78.632C155.856 79.276 155.534 80.426 155.442 81.622C155.396 81.944 155.442 82.266 155.442 82.588C155.488 82.91 155.58 83.232 155.764 83.508C155.948 83.784 156.178 84.014 156.408 84.152C156.684 84.29 156.914 84.336 157.144 84.336C157.65 84.336 157.972 84.198 158.248 84.06C158.478 83.922 158.662 83.784 158.754 83.692C158.984 83.462 158.938 83.37 158.892 83.278C158.846 83.186 158.708 83.186 158.478 83.324C158.34 83.37 158.202 83.462 157.972 83.508C157.742 83.554 157.466 83.646 157.19 83.646C157.052 83.646 156.914 83.6 156.776 83.508C156.638 83.416 156.5 83.324 156.408 83.14C156.316 82.956 156.224 82.726 156.178 82.496C156.132 82.266 156.132 81.99 156.178 81.714C156.27 80.61 156.546 79.46 156.684 78.862C156.868 78.218 156.96 77.804 157.006 77.574C157.052 77.482 157.052 77.39 157.052 77.344C157.098 77.298 157.098 77.252 157.052 77.206Z" fill="#101828"/>
<path d="M218.462 101.816C218.324 101.908 218.278 102 218.416 102.46C218.554 102.874 218.922 103.978 219.106 104.392C219.336 104.898 219.474 104.99 219.658 104.898C219.842 104.852 219.934 104.714 219.796 104.162C219.704 103.702 219.29 102.598 219.06 102.184C218.83 101.77 218.646 101.724 218.462 101.816Z" fill="white"/>
<path d="M179.5 61.7039C179.5 61.7959 179.546 61.8879 179.868 62.1639C180.282 62.4859 180.834 62.9 181.754 63.59C182.674 64.326 184.33 65.5219 185.986 66.764C187.642 68.0059 189.206 69.34 190.126 70.122C191.184 71.042 191.736 71.64 192.15 71.962C192.518 72.284 192.656 72.3299 192.794 72.2379C192.886 72.1459 192.886 72.0079 192.656 71.5479C192.426 71.1339 191.874 70.398 190.862 69.386C189.988 68.512 188.378 67.132 186.722 65.8899C185.066 64.648 183.364 63.4519 182.398 62.8079C181.34 62.1179 180.65 61.75 180.236 61.612C179.73 61.52 179.5 61.6119 179.5 61.7039ZM153.786 76.562C153.648 76.516 153.418 76.6539 153.142 77.5739C153.004 77.9879 152.866 78.7699 152.82 79.5979C152.82 80.0119 152.866 80.4259 152.912 80.7939C153.004 81.1619 153.096 81.4839 153.234 81.7139C153.51 82.2659 153.832 82.4959 154.016 82.5879C154.2 82.6799 154.292 82.634 154.338 82.542C154.384 82.45 154.384 82.358 154.292 82.22C154.2 82.082 154.062 81.8519 153.878 81.4379C153.786 81.2539 153.74 80.978 153.694 80.656C153.648 80.334 153.602 79.9659 153.602 79.5979C153.602 78.8619 153.74 78.126 153.786 77.712C154.016 76.838 153.97 76.654 153.786 76.562ZM195.416 78.6779C195.416 78.4939 195.14 78.356 193.576 78.172C192.104 77.988 188.378 77.712 186.86 77.62C185.066 77.528 184.698 77.6199 184.698 77.8039C184.698 77.9879 185.02 78.1259 186.814 78.31C188.332 78.4939 192.058 78.77 193.53 78.816C195.048 78.908 195.37 78.8159 195.416 78.6779ZM166.712 87.372C166.85 87.464 167.172 87.234 168.092 85.67C168.506 84.934 169.196 83.554 169.702 82.082C170.208 80.61 170.576 79.0919 170.76 78.2179C170.852 77.7119 170.898 77.252 170.944 76.93C170.944 76.608 170.944 76.3319 170.944 76.1479C170.944 75.7799 170.852 75.6879 170.76 75.6879C170.668 75.6879 170.576 75.78 170.484 76.102C170.438 76.286 170.392 76.5159 170.346 76.8379C170.254 77.1599 170.208 77.574 170.07 78.08C169.886 78.954 169.518 80.38 169.012 81.806C168.506 83.232 167.908 84.5659 167.54 85.3479C166.712 86.9119 166.528 87.28 166.712 87.372ZM194.68 33.598C194.772 33.46 194.588 33.23 193.576 32.586C193.07 32.264 192.242 31.758 191.368 31.206C190.494 30.654 189.666 30.056 189.206 29.688C188.102 28.86 187.872 28.6759 187.734 28.8139C187.642 28.8599 187.642 28.998 187.78 29.182C187.918 29.412 188.194 29.7339 188.746 30.1939C189.206 30.6079 190.034 31.206 190.908 31.758C191.782 32.31 192.656 32.8159 193.208 33.0919C194.312 33.7359 194.588 33.736 194.68 33.598ZM195.738 34.15C195.554 34.104 195.37 34.38 194.91 35.806C194.68 36.496 194.312 37.6919 193.852 38.842C193.392 39.992 192.748 41.05 192.288 41.602C191.782 42.246 191.368 42.522 191.138 42.706C190.908 42.89 190.862 42.9819 190.908 43.0739C190.954 43.1659 191.046 43.212 191.368 43.12C191.552 43.074 191.736 42.9819 191.966 42.8439C192.104 42.7519 192.242 42.66 192.38 42.522C192.518 42.384 192.702 42.246 192.84 42.062C193.392 41.464 194.082 40.314 194.542 39.118C195.048 37.922 195.37 36.68 195.554 35.99C195.922 34.518 195.922 34.196 195.738 34.15ZM190.034 43.258C190.034 43.166 189.942 43.12 189.62 43.028C189.298 42.936 188.792 42.89 188.01 42.568C187.642 42.384 187.136 42.154 186.63 41.74C186.124 41.326 185.618 40.82 185.158 40.222C184.192 38.9799 183.088 37.83 182.444 37.186C180.88 35.714 180.512 35.53 180.374 35.668C180.236 35.806 180.466 36.128 181.892 37.6919C182.49 38.3359 183.594 39.486 184.514 40.682C184.974 41.326 185.572 41.924 186.124 42.338C186.676 42.798 187.274 43.0739 187.688 43.212C188.608 43.5339 189.252 43.534 189.574 43.488C189.942 43.396 190.034 43.304 190.034 43.258Z" fill="#101828"/>
<path d="M189.39 24.076C189.39 24.168 189.436 24.26 189.574 24.352C189.712 24.49 190.08 24.628 190.264 24.996C190.31 25.088 190.356 25.226 190.356 25.364C190.356 25.502 190.356 25.686 190.31 25.87C190.218 26.238 190.034 26.652 189.712 26.974C189.068 27.664 188.194 28.17 187.688 28.446C187.09 28.768 186.722 28.952 186.492 29.09C186.262 29.228 186.262 29.32 186.262 29.412C186.308 29.504 186.354 29.55 186.63 29.55C186.86 29.504 187.32 29.412 187.964 29.136C188.516 28.86 189.482 28.354 190.264 27.526C190.632 27.112 190.954 26.606 191.046 26.054C191.138 25.548 191.046 25.042 190.862 24.72C190.678 24.352 190.402 24.168 190.172 24.076C189.942 23.984 189.804 23.938 189.666 23.938C189.482 23.892 189.39 23.984 189.39 24.076ZM182.076 34.012C182.03 33.966 181.846 34.058 181.34 34.472C181.064 34.656 180.742 34.978 180.236 35.3C179.73 35.622 179.132 36.036 178.304 36.404C177.522 36.726 176.326 37.094 174.992 37.002C174.348 36.956 173.658 36.772 173.014 36.404C172.37 36.036 171.818 35.53 171.312 34.978C170.3 33.828 169.656 32.356 169.15 31.022C168.69 29.688 168.368 28.446 168.184 27.526C167.724 25.364 167.586 24.076 167.448 23.34C167.31 22.604 167.218 22.374 167.126 22.374C167.034 22.374 166.942 22.604 166.988 23.34C166.988 24.122 167.08 25.41 167.494 27.618C167.678 28.538 167.954 29.826 168.46 31.206C168.966 32.586 169.61 34.104 170.714 35.438C171.266 36.082 171.864 36.68 172.6 37.094C173.336 37.508 174.118 37.738 174.9 37.784C176.418 37.876 177.706 37.508 178.534 37.14C179.454 36.726 180.098 36.266 180.604 35.852C181.11 35.438 181.432 35.116 181.662 34.84C182.076 34.288 182.168 34.058 182.076 34.012Z" fill="#101828"/>
<path d="M183.548 25.226C183.686 25.134 183.732 24.996 183.456 24.49C183.226 24.03 182.444 22.972 182.076 22.558C181.662 22.098 181.478 22.098 181.34 22.19C181.202 22.328 181.202 22.466 181.524 22.972C181.8 23.386 182.582 24.444 182.904 24.858C183.272 25.272 183.41 25.318 183.548 25.226Z" fill="white"/>
<path d="M267.36 21.592C267.36 21.362 265.106 21.224 254.112 21.178C243.67 21.132 217.082 21.178 206.134 21.27C193.254 21.362 190.816 21.546 190.816 21.776C190.816 22.006 193.162 22.19 205.95 22.236C216.852 22.282 243.394 22.236 253.836 22.144C265.014 21.96 267.36 21.822 267.36 21.592ZM167.77 21.776C167.77 21.546 166.988 21.408 163.17 21.316C159.536 21.27 150.29 21.27 146.472 21.316C142.01 21.408 141.136 21.546 141.136 21.822C141.136 22.052 141.964 22.236 146.38 22.282C150.152 22.328 159.398 22.328 163.032 22.236C166.988 22.144 167.77 22.006 167.77 21.776ZM139.48 23.524C139.25 23.524 139.112 23.8 139.02 25.088C138.928 26.33 138.928 29.412 138.974 30.7C139.066 32.218 139.204 32.494 139.48 32.494C139.71 32.494 139.894 32.218 139.986 30.7C140.032 29.412 140.032 26.284 139.986 25.088C139.848 23.8 139.71 23.524 139.48 23.524ZM178.994 119.986C178.994 120.216 181.478 120.354 193.806 120.446C205.444 120.538 235.114 120.538 247.35 120.492C261.702 120.4 264.416 120.262 264.416 119.986C264.416 119.756 261.794 119.572 247.534 119.48C235.39 119.434 205.766 119.434 194.082 119.48C181.662 119.618 178.994 119.756 178.994 119.986ZM266.118 119.158C266.348 119.158 266.486 116.352 266.578 102.598C266.67 89.58 266.67 56.322 266.624 42.66C266.532 26.606 266.394 23.524 266.118 23.524C265.888 23.524 265.704 26.468 265.612 42.43C265.566 56.046 265.566 89.212 265.612 102.276C265.704 116.214 265.888 119.158 266.118 119.158ZM263.956 27.802C263.956 27.618 261.84 27.526 251.444 27.434C241.6 27.388 216.484 27.388 206.18 27.434C194.036 27.48 191.736 27.618 191.736 27.802C191.736 27.986 193.944 28.124 205.996 28.17C216.3 28.216 241.324 28.216 251.214 28.17C261.748 28.078 263.956 27.986 263.956 27.802ZM166.298 27.802C166.298 27.618 165.562 27.526 161.928 27.434C158.478 27.388 149.738 27.388 146.15 27.434C141.918 27.48 141.136 27.618 141.136 27.802C141.136 27.986 141.918 28.124 146.104 28.17C149.692 28.216 158.432 28.216 161.882 28.17C165.516 28.078 166.298 27.986 166.298 27.802ZM176.464 23.34C176.556 23.294 176.602 23.248 176.602 23.156C176.602 23.064 176.602 22.88 176.464 22.604C176.326 22.374 176.05 21.96 175.636 21.638C175.222 21.316 174.578 21.224 174.21 21.408C173.842 21.592 173.704 21.822 173.658 21.914C173.612 22.052 173.658 22.098 173.75 22.19C173.842 22.236 173.934 22.282 174.026 22.236C174.118 22.19 174.256 22.144 174.44 22.098C174.578 22.052 174.9 22.098 175.176 22.282C175.498 22.466 175.728 22.788 175.866 22.926C176.142 23.34 176.28 23.432 176.464 23.34ZM170.438 25.732C170.254 25.732 170.162 25.87 170.07 26.606C170.024 26.974 169.978 27.572 169.932 28.216C169.932 28.538 169.886 28.814 169.886 29.136C169.886 29.228 169.932 29.412 169.978 29.504C170.024 29.596 170.07 29.688 170.162 29.734C170.254 29.872 170.392 29.918 170.484 30.01C170.99 30.286 171.312 30.24 171.496 30.148C171.68 30.102 171.68 30.01 171.68 29.918C171.68 29.826 171.634 29.734 171.496 29.688C171.358 29.642 171.174 29.596 170.898 29.412C170.852 29.366 170.806 29.32 170.76 29.274C170.714 29.228 170.714 29.136 170.714 29.182C170.714 28.906 170.76 28.63 170.76 28.308C170.806 27.664 170.806 27.066 170.806 26.698C170.714 25.916 170.576 25.732 170.438 25.732ZM100.518 33.874C100.472 33.828 100.38 33.828 100.15 33.92C99.92 34.012 99.598 34.15 99.046 34.288C98.494 34.472 97.758 34.656 96.7 34.656C95.688 34.656 94.4 34.38 92.974 33.598C92.33 33.23 91.594 32.632 90.95 31.896C90.306 31.114 89.708 30.148 89.34 28.998C88.972 27.848 88.834 26.56 89.018 25.272C89.202 23.984 89.754 22.696 90.582 21.638C91.41 20.58 92.468 19.66 93.664 19.062C94.86 18.464 96.148 18.188 97.344 18.28C98.54 18.326 99.644 18.74 100.518 19.246C101.438 19.752 102.128 20.396 102.68 20.994C103.324 21.684 103.784 22.374 104.106 23.064C104.428 23.754 104.658 24.398 104.75 24.996C104.98 26.146 104.934 27.066 104.888 27.71C104.842 28.354 104.75 28.814 104.75 29.044C104.704 29.32 104.75 29.412 104.796 29.412C104.842 29.412 104.934 29.366 105.072 29.136C105.21 28.906 105.348 28.492 105.486 27.802C105.624 27.112 105.762 26.146 105.578 24.858C105.394 23.57 104.842 21.914 103.462 20.396C102.864 19.752 102.128 19.016 101.116 18.418C100.61 18.096 100.058 17.866 99.46 17.636C98.862 17.452 98.172 17.268 97.528 17.222C96.148 17.13 94.676 17.406 93.342 18.05C92.008 18.694 90.812 19.66 89.846 20.856C88.926 22.052 88.282 23.478 88.052 24.95C87.822 26.422 87.96 27.848 88.374 29.136C88.788 30.424 89.432 31.528 90.168 32.356C90.904 33.23 91.732 33.828 92.422 34.288C93.986 35.208 95.504 35.438 96.654 35.438C97.804 35.392 98.678 35.116 99.23 34.886C99.506 34.748 99.736 34.61 99.92 34.518C100.104 34.426 100.242 34.288 100.334 34.242C100.472 34.012 100.564 33.92 100.518 33.874Z" fill="#101828"/>
<path d="M104.29 30.47C104.198 30.47 104.152 30.562 104.152 30.838C104.152 31.114 104.244 31.574 104.566 32.31C104.704 32.632 104.98 33.138 105.394 33.552C105.486 33.644 105.624 33.782 105.716 33.874L105.9 34.012L106.038 34.15H105.992C105.854 34.15 105.716 34.15 105.532 34.15C105.256 34.15 104.934 34.104 104.658 34.104C104.106 34.058 103.646 33.92 103.278 33.828C102.496 33.598 102.128 33.322 101.898 33.138C101.714 32.954 101.622 32.908 101.53 32.954C101.438 33 101.392 33.092 101.53 33.414C101.668 33.736 102.128 34.196 103.002 34.472C103.37 34.61 103.876 34.748 104.474 34.84C104.75 34.886 105.072 34.886 105.394 34.932C105.578 34.932 105.716 34.932 105.9 34.932H106.038C106.13 34.932 106.176 34.932 106.268 34.886C106.406 34.886 106.59 34.84 106.682 34.794C106.774 34.748 106.912 34.656 106.912 34.564L106.958 34.426C106.958 34.38 106.958 34.288 106.958 34.242C106.958 34.058 106.774 33.828 106.498 33.644C106.36 33.552 106.222 33.414 106.084 33.322C105.992 33.23 105.9 33.138 105.808 33.046C105.44 32.678 105.164 32.264 105.026 31.988C104.658 31.344 104.52 30.93 104.382 30.7C104.474 30.516 104.382 30.47 104.29 30.47ZM96.056 29.366C96.148 29.366 96.24 29.274 96.332 29.044C96.378 28.906 96.378 28.768 96.424 28.538C96.424 28.446 96.47 28.308 96.47 28.17C96.47 28.078 96.516 27.894 96.562 27.894C96.562 27.894 96.608 27.848 96.654 27.802C96.838 27.664 97.344 27.48 97.896 27.112C98.172 26.928 98.494 26.652 98.724 26.238C98.954 25.87 99 25.41 99 25.042V24.766C99 24.674 98.954 24.582 98.954 24.444C98.954 24.26 98.862 24.03 98.77 23.846C98.724 23.754 98.678 23.662 98.632 23.57C98.586 23.478 98.54 23.386 98.448 23.294C98.31 23.156 98.126 23.018 97.942 22.926C97.252 22.512 96.516 22.604 96.056 22.696C95.504 22.88 95.136 23.156 94.906 23.478C94.768 23.616 94.722 23.8 94.676 23.938C94.63 24.076 94.63 24.214 94.63 24.306C94.676 24.72 94.768 24.766 94.906 24.766C95.044 24.766 95.136 24.674 95.228 24.444C95.274 24.398 95.32 24.306 95.32 24.26C95.366 24.214 95.412 24.122 95.504 24.076C95.642 23.938 95.918 23.8 96.24 23.708C96.516 23.662 96.976 23.616 97.344 23.846C97.528 23.938 97.666 24.122 97.758 24.306C97.804 24.398 97.85 24.536 97.85 24.674L97.896 24.858V25.088C97.896 25.686 97.712 26.054 97.298 26.33C96.884 26.606 96.378 26.79 96.01 27.158C95.918 27.25 95.826 27.342 95.734 27.526C95.596 27.848 95.642 27.986 95.642 28.17C95.642 28.308 95.642 28.446 95.688 28.584C95.734 28.814 95.734 28.998 95.78 29.09C95.872 29.32 95.964 29.366 96.056 29.366ZM118.458 61.704C118.504 61.612 118.412 61.52 118.136 61.428C117.998 61.382 117.768 61.336 117.492 61.382C117.216 61.428 116.848 61.566 116.48 61.888C116.158 62.164 115.836 62.67 115.606 63.268C115.376 63.866 115.238 64.556 115.192 65.246C115.054 66.626 115.33 68.006 115.606 68.788C115.928 69.708 116.296 70.168 116.526 70.398C116.756 70.628 116.894 70.628 116.94 70.582C117.032 70.536 117.032 70.398 116.894 70.122C116.756 69.846 116.526 69.386 116.296 68.558C116.066 67.868 115.836 66.58 115.974 65.292C116.02 64.648 116.158 64.05 116.342 63.544C116.526 63.038 116.756 62.624 116.986 62.394C117.446 61.888 117.86 61.888 118.136 61.842C118.32 61.796 118.412 61.796 118.458 61.704Z" fill="#101828"/>
<path d="M119.516 62.716C119.516 62.624 119.47 62.532 119.24 62.578C119.01 62.578 118.596 62.762 118.32 63.314C118.044 63.774 117.814 64.694 117.768 65.614C117.722 66.534 117.906 67.408 118.044 67.914C118.228 68.512 118.412 68.834 118.55 69.018C118.688 69.202 118.78 69.202 118.872 69.156C119.056 69.064 119.01 68.834 118.78 67.73C118.688 67.27 118.55 66.442 118.596 65.614C118.596 64.786 118.78 64.004 118.964 63.636C119.148 63.222 119.332 63.084 119.424 62.992C119.47 62.854 119.516 62.808 119.516 62.716ZM115.054 63.406C115.054 63.314 114.962 63.222 114.686 63.268C114.548 63.268 114.364 63.36 114.134 63.498C113.904 63.636 113.72 63.912 113.536 64.234C113.214 64.878 112.984 66.074 113.03 67.27C113.076 68.466 113.306 69.616 113.536 70.26C113.812 71.042 114.042 71.456 114.226 71.686C114.41 71.916 114.502 71.916 114.594 71.87C114.686 71.824 114.686 71.732 114.64 71.456C114.594 71.18 114.41 70.766 114.226 70.03C114.042 69.386 113.858 68.328 113.812 67.224C113.766 66.12 113.904 65.016 114.134 64.51C114.364 63.958 114.64 63.728 114.778 63.636C115.008 63.544 115.054 63.498 115.054 63.406ZM112.662 66.304C112.616 66.212 112.57 66.166 112.34 66.258C112.294 66.258 112.248 66.304 112.156 66.304C112.11 66.35 112.018 66.396 111.972 66.442C111.88 66.488 111.788 66.58 111.742 66.672C111.65 66.764 111.558 66.856 111.512 66.994C111.19 67.454 110.914 68.374 110.914 69.34C110.914 70.26 111.098 71.18 111.282 71.686C111.512 72.284 111.696 72.606 111.834 72.79C111.972 72.974 112.064 72.974 112.156 72.928C112.248 72.882 112.294 72.79 112.248 72.606C112.202 72.422 112.11 72.1 111.972 71.502C111.834 71.042 111.696 70.214 111.696 69.386C111.696 68.558 111.88 67.776 112.11 67.408C112.34 66.994 112.524 66.81 112.616 66.672C112.662 66.488 112.662 66.396 112.662 66.304ZM129.636 41.602C129.82 41.51 129.958 41.326 129.682 40.912C129.544 40.728 129.222 40.406 128.808 40.268C128.394 40.13 127.98 40.13 127.75 40.176C127.474 40.222 127.336 40.36 127.29 40.452C127.244 40.544 127.244 40.636 127.29 40.774C127.382 41.004 127.52 41.096 127.888 41.142C128.026 41.142 128.302 41.188 128.532 41.234C128.762 41.326 128.946 41.418 129.084 41.51C129.268 41.694 129.406 41.694 129.636 41.602ZM122.276 41.28C122.414 41.096 122.322 40.82 121.862 40.774C121.678 40.728 121.31 40.774 121.034 40.912C120.712 41.05 120.436 41.234 120.344 41.372C120.022 41.694 120.16 41.878 120.344 42.062C120.528 42.246 120.712 42.292 120.942 42.154C121.08 42.108 121.264 41.97 121.448 41.924C121.632 41.832 121.816 41.786 121.954 41.74C122.138 41.602 122.184 41.51 122.276 41.28ZM125.772 49.79C125.726 49.744 125.588 49.744 125.45 49.836C125.266 49.928 125.036 50.158 124.576 50.388C124.392 50.48 124.024 50.572 123.794 50.526C123.748 50.526 123.702 50.48 123.702 50.434C123.656 50.434 123.656 50.388 123.656 50.296C123.61 50.112 123.61 49.882 123.61 49.652C123.656 48.686 123.748 47.72 123.748 47.122C123.794 45.742 123.702 45.466 123.518 45.466C123.334 45.466 123.196 45.696 123.058 47.03C123.012 47.582 122.874 48.594 122.874 49.606C122.874 49.882 122.874 50.112 122.92 50.388C122.92 50.526 123.012 50.71 123.104 50.894C123.196 51.078 123.38 51.17 123.564 51.216C123.886 51.308 124.162 51.308 124.392 51.216C124.622 51.17 124.806 51.078 124.944 50.986C125.542 50.618 125.726 50.296 125.818 50.112C125.864 49.928 125.864 49.836 125.772 49.79ZM128.9 51.86C128.716 51.86 128.67 51.86 128.394 52.182C128.256 52.32 128.072 52.596 127.842 52.826C127.612 53.056 127.336 53.24 127.198 53.332C126.83 53.562 126.738 53.654 126.784 53.838C126.784 53.93 126.83 54.022 126.922 54.022C127.014 54.068 127.244 54.068 127.52 53.976C127.75 53.884 128.118 53.654 128.394 53.332C128.67 53.056 128.9 52.688 128.992 52.504C129.176 52.09 129.084 51.814 128.9 51.86Z" fill="#101828"/>
<path d="M120.344 37.37C120.16 37.324 119.7 38.336 119.47 43.258C119.424 44.408 119.332 46.018 119.378 47.904C119.424 49.744 119.608 51.86 120.252 53.93C120.574 54.942 120.988 55.954 121.632 56.828C121.954 57.242 122.322 57.656 122.69 58.024C123.104 58.346 123.518 58.668 123.978 58.852C124.898 59.266 125.864 59.404 126.692 59.404C127.52 59.404 128.256 59.266 128.9 59.128C129.728 58.898 130.234 58.484 130.694 58.116C131.154 57.748 131.522 57.38 131.844 57.058C132.488 56.414 132.902 55.862 133.224 55.494C133.822 54.712 133.96 54.436 133.868 54.39C133.776 54.344 133.592 54.482 132.902 55.172C132.58 55.494 132.12 56 131.43 56.598C131.108 56.92 130.74 57.242 130.28 57.564C130.05 57.748 129.82 57.932 129.544 58.07C129.268 58.208 128.992 58.392 128.716 58.438C128.164 58.576 127.474 58.714 126.692 58.714C125.956 58.714 125.082 58.576 124.3 58.254C123.518 57.886 122.782 57.288 122.23 56.506C121.678 55.724 121.264 54.804 120.942 53.838C120.344 51.906 120.114 49.836 120.068 48.042C119.976 46.202 120.068 44.592 120.114 43.442C120.298 38.428 120.482 37.416 120.344 37.37ZM136.352 45.926C136.444 45.926 136.49 45.788 136.858 45.236C137.042 44.96 137.272 44.638 137.64 44.224C138.008 43.81 138.56 43.304 139.296 42.89C139.618 42.706 140.124 42.568 140.354 42.798C140.4 42.844 140.446 42.936 140.492 43.028C140.538 43.166 140.584 43.304 140.63 43.442C140.676 43.718 140.768 44.04 140.768 44.316C140.768 44.96 140.584 45.604 140.262 46.202C139.94 46.8 139.434 47.398 138.882 47.858C138.744 47.95 138.606 48.088 138.468 48.226L138.238 48.364L138.008 48.548C137.962 48.594 137.916 48.594 137.916 48.64V48.778C137.916 49.008 137.916 49.238 137.916 49.468C137.916 49.652 137.916 49.836 137.916 50.066C137.916 50.848 137.962 51.584 138.008 52.274C138.1 53.7 138.284 54.942 138.468 55.816C138.882 57.932 139.388 59.174 139.756 59.864C139.94 60.186 140.078 60.37 140.216 60.508C140.308 60.6 140.4 60.646 140.446 60.6C140.492 60.554 140.492 60.508 140.446 60.37C140.4 60.232 140.308 60.002 140.216 59.68C139.986 59.036 139.572 57.84 139.204 55.77C139.066 54.896 138.882 53.654 138.79 52.274C138.744 51.584 138.698 50.848 138.698 50.112C138.698 49.928 138.698 49.744 138.698 49.56V49.008L138.744 48.962L138.882 48.87C139.066 48.778 139.204 48.64 139.342 48.502C139.986 47.996 140.492 47.352 140.906 46.616C141.32 45.926 141.504 45.098 141.504 44.362C141.504 43.994 141.458 43.626 141.366 43.258C141.32 43.074 141.274 42.936 141.228 42.752C141.182 42.614 141.09 42.384 140.952 42.246C140.814 42.108 140.63 41.97 140.446 41.924C140.262 41.878 140.078 41.878 139.894 41.878C139.572 41.924 139.296 42.016 139.112 42.108C138.652 42.338 138.284 42.614 138.008 42.89C137.732 43.166 137.502 43.442 137.272 43.672C136.904 44.178 136.674 44.592 136.536 44.914C136.168 45.696 136.26 45.926 136.352 45.926Z" fill="#101828"/>
<path d="M128.9 62.164C129.084 62.164 129.176 62.072 129.222 61.566C129.268 61.106 129.176 59.91 129.13 59.45C129.038 58.898 128.9 58.806 128.716 58.806C128.532 58.806 128.394 58.944 128.394 59.496C128.394 59.956 128.44 61.152 128.532 61.612C128.578 62.072 128.716 62.164 128.9 62.164Z" fill="#101828"/>
<path d="M172.186 124.402C172.14 124.31 171.772 124.356 170.622 124.724C170.484 124.77 170.3 124.816 170.162 124.862C169.978 124.908 169.794 124.954 169.61 125C169.196 125.092 168.736 125.23 168.184 125.368C167.08 125.598 165.746 125.92 163.998 126.15C160.732 126.702 154.89 127.208 149.002 127.162C146.058 127.162 143.068 127.024 140.446 126.794C139.802 126.748 139.158 126.656 138.514 126.61C137.916 126.564 137.318 126.472 136.72 126.38C136.168 126.288 135.616 126.242 135.11 126.15C134.696 126.058 134.282 126.012 133.914 125.966V125.874C133.868 125.736 133.868 125.644 133.822 125.506C133.776 125.276 133.684 125.046 133.638 124.816C133.5 124.356 133.362 123.942 133.224 123.574C132.948 122.792 132.718 122.102 132.488 121.504C132.028 120.308 131.66 119.388 131.384 118.744C130.832 117.456 130.602 117.134 130.51 117.134C130.418 117.18 130.51 117.548 130.924 118.882C131.154 119.572 131.476 120.446 131.844 121.642C132.028 122.24 132.258 122.93 132.534 123.712C132.672 124.08 132.764 124.494 132.902 124.954C132.948 125.184 133.04 125.414 133.086 125.644C133.132 125.736 133.132 125.874 133.178 126.012C133.224 126.196 133.27 126.38 133.27 126.518L133.316 126.656C133.362 126.656 133.408 126.656 133.454 126.702C133.546 126.702 133.684 126.748 133.776 126.748C133.914 126.748 134.006 126.794 134.144 126.794C134.374 126.84 134.604 126.886 134.88 126.932C135.386 127.024 135.938 127.116 136.49 127.208C137.64 127.392 138.882 127.53 140.216 127.622C142.884 127.898 145.874 127.99 148.818 128.036C154.752 128.082 160.64 127.53 163.952 126.932C164.826 126.748 165.608 126.656 166.344 126.472C167.034 126.288 167.678 126.15 168.23 126.012C168.782 125.828 169.242 125.69 169.702 125.552C170.116 125.414 170.484 125.322 170.76 125.184C171.864 124.678 172.232 124.494 172.186 124.402ZM163.538 107.428C163.492 107.244 163.124 107.29 161.56 107.704C160.824 107.934 159.49 108.256 158.202 108.624C156.868 108.992 155.534 109.314 154.752 109.544C152.912 110.05 152.59 110.234 152.636 110.418C152.682 110.602 153.05 110.648 154.89 110.28C155.672 110.096 157.052 109.774 158.386 109.406C159.72 109.038 161.054 108.624 161.744 108.348C163.308 107.842 163.584 107.612 163.538 107.428Z" fill="white"/>
<path d="M176.878 97.078C176.786 96.894 176.326 97.078 173.704 97.492C172.462 97.722 170.254 98.044 168.046 98.32C165.838 98.596 163.584 98.688 162.25 98.688C161.468 98.688 160.87 98.688 160.364 98.688C159.858 98.688 159.536 98.688 159.26 98.642C158.708 98.642 158.57 98.688 158.57 98.78C158.57 98.872 158.662 98.964 159.214 99.102C159.49 99.194 159.858 99.24 160.318 99.286C160.824 99.332 161.422 99.378 162.204 99.424C163.538 99.47 165.838 99.378 168.092 99.102C170.346 98.872 172.554 98.458 173.796 98.182C176.418 97.63 176.97 97.216 176.878 97.078ZM161.652 86.958C161.606 86.774 161.33 86.728 160.18 86.958C159.076 87.188 156.316 87.786 155.166 87.97C153.832 88.246 153.602 88.384 153.602 88.568C153.648 88.752 153.878 88.844 155.258 88.66C156.408 88.522 159.214 87.924 160.272 87.602C161.514 87.326 161.698 87.142 161.652 86.958Z" fill="#101828"/>
<path d="M130.924 115.984C130.924 116.076 131.338 116.122 132.626 115.984C133.914 115.846 136.122 115.432 139.756 114.512C140.814 114.236 142.148 113.868 143.62 113.454C145.092 112.994 146.702 112.488 148.404 112.028C150.106 111.522 151.9 111.062 153.74 110.602C154.66 110.372 155.534 110.142 156.408 109.912C157.42 109.682 158.386 109.406 159.352 109.176C159.26 108.394 159.122 107.658 159.03 106.922C158.892 106.324 158.8 105.726 158.662 105.128C158.524 104.576 158.386 103.978 158.248 103.472C158.11 102.92 157.926 102.414 157.788 101.908C157.19 99.93 156.546 98.274 155.994 96.986C155.166 94.962 154.43 93.398 153.786 92.202C153.142 90.96 152.682 90.086 152.268 89.442C151.486 88.154 151.21 87.832 151.118 87.878C151.026 87.924 151.164 88.292 151.808 89.626C152.13 90.27 152.59 91.19 153.142 92.386C153.74 93.628 154.43 95.146 155.212 97.124C155.718 98.412 156.362 100.068 156.96 102.046C157.098 102.552 157.282 103.058 157.42 103.61C157.558 104.162 157.696 104.714 157.834 105.266C157.972 105.818 158.064 106.416 158.202 107.06C158.294 107.566 158.34 108.072 158.432 108.578C157.696 108.762 156.96 108.946 156.178 109.13C155.304 109.36 154.384 109.59 153.51 109.82C151.716 110.28 149.922 110.786 148.22 111.292C146.518 111.798 144.908 112.304 143.482 112.764C142.056 113.224 140.768 113.592 139.71 113.868C136.122 114.834 133.868 115.34 132.58 115.616C131.292 115.8 130.924 115.892 130.924 115.984Z" fill="white"/>
<path d="M156.684 99.746C156.914 99.654 156.914 99.24 156.316 97.446C156.04 96.572 155.442 95.1 154.752 93.628C154.062 92.156 153.326 90.73 152.866 89.902C151.762 87.97 151.394 87.694 151.164 87.832C150.934 87.97 151.026 88.384 151.992 90.316C152.406 91.144 153.096 92.57 153.786 94.042C154.476 95.468 155.074 96.94 155.442 97.768C156.224 99.516 156.454 99.838 156.684 99.746ZM119.516 100.436C119.7 100.39 119.746 100.022 119.516 98.09C119.424 97.17 119.194 95.56 119.01 93.904C118.826 92.294 118.642 90.638 118.55 89.672C118.366 87.418 118.366 87.004 118.136 87.004C117.952 87.004 117.768 87.418 117.814 89.718C117.86 90.684 117.998 92.34 118.182 93.996C118.366 95.652 118.642 97.262 118.78 98.182C119.148 100.068 119.332 100.436 119.516 100.436Z" fill="#101828"/>
<path d="M141.366 63.314C141.274 63.268 141.136 63.314 140.86 63.636C140.584 63.912 140.17 64.418 139.296 65.154C138.468 65.798 136.858 66.81 134.972 67.224C134.052 67.408 133.132 67.5 132.304 67.362C131.476 67.27 130.786 66.994 130.326 66.764C129.222 66.166 128.762 65.522 128.44 65.246C128.118 64.924 127.98 64.832 127.888 64.924C127.796 64.97 127.75 65.154 127.934 65.614C128.164 66.028 128.578 66.856 129.866 67.638C130.418 67.96 131.2 68.282 132.166 68.42C133.132 68.558 134.19 68.512 135.202 68.282C137.272 67.868 139.02 66.718 139.894 65.936C140.814 65.108 141.228 64.418 141.412 64.004C141.504 63.544 141.458 63.36 141.366 63.314Z" fill="white"/>
<path d="M155.028 99.24C154.982 99.148 154.752 99.194 153.924 99.47C153.142 99.746 151.762 100.16 149.416 100.758C147.208 101.31 143.298 102.138 139.25 102.644C135.248 103.196 131.154 103.38 128.762 103.334C127.382 103.334 126.278 103.242 125.404 103.196C124.99 103.15 124.576 103.104 124.254 103.058C123.932 103.012 123.656 103.012 123.426 102.966C122.506 102.782 122.184 102.828 122.184 102.92C122.138 103.012 122.368 103.15 123.288 103.426C123.426 103.472 123.518 103.518 123.656 103.518C123.794 103.564 123.932 103.564 124.116 103.61C124.438 103.656 124.852 103.748 125.266 103.794C126.14 103.886 127.29 104.024 128.67 104.07C131.062 104.162 135.202 103.978 139.25 103.426C143.298 102.92 147.254 102.046 149.462 101.448C151.808 100.804 153.234 100.252 154.016 99.884C154.844 99.47 155.074 99.332 155.028 99.24Z" fill="#101828"/>
<path d="M150.704 89.304C150.658 89.074 149.692 89.12 145.23 90.04C143.114 90.454 139.342 91.144 135.524 91.328C131.706 91.558 127.796 91.42 125.542 91.282C124.208 91.19 123.15 91.144 122.322 91.098C121.494 91.052 120.85 91.006 120.39 91.006C119.47 91.006 119.194 91.052 119.194 91.19C119.194 91.328 119.424 91.466 120.298 91.604C120.758 91.696 121.356 91.788 122.184 91.926C123.012 92.018 124.07 92.156 125.404 92.248C127.658 92.432 131.568 92.616 135.478 92.386C139.388 92.202 143.206 91.466 145.322 90.96C149.83 89.902 150.75 89.534 150.704 89.304Z" fill="white"/>
<path d="M116.434 89.718C116.434 89.534 116.02 89.442 113.996 89.166C113.03 89.028 111.328 88.844 109.718 88.384C108.062 87.97 106.498 87.234 105.67 86.728C105.164 86.406 104.796 86.176 104.474 85.946C104.152 85.762 103.922 85.578 103.784 85.486C103.462 85.256 103.324 85.256 103.232 85.302C103.186 85.348 103.186 85.486 103.462 85.808C103.6 85.992 103.784 86.176 104.06 86.406C104.336 86.682 104.75 86.958 105.256 87.28C106.13 87.878 107.74 88.66 109.488 89.074C111.19 89.534 112.938 89.718 113.904 89.81C115.974 89.994 116.434 89.856 116.434 89.718ZM115.054 99.746C115.054 99.562 114.548 99.47 112.11 99.194C110.96 99.056 108.89 98.78 106.912 98.182C104.934 97.63 103.048 96.71 101.99 96.066C101.668 95.882 101.392 95.744 101.162 95.56C100.932 95.422 100.702 95.238 100.518 95.146C100.15 94.916 99.874 94.686 99.644 94.548C99.23 94.272 99.046 94.226 99 94.318C98.954 94.41 99 94.548 99.322 94.916C99.506 95.1 99.736 95.376 100.104 95.652C100.472 95.928 100.932 96.296 101.53 96.71C102.588 97.4 104.52 98.366 106.59 98.964C108.66 99.562 110.73 99.838 111.926 99.93C114.502 100.068 115.054 99.93 115.054 99.746ZM131.062 125.506C131.016 125.414 130.924 125.414 130.51 125.46C130.142 125.506 129.498 125.644 128.486 125.552C128.256 125.506 127.98 125.46 127.658 125.368C127.52 125.322 127.336 125.276 127.198 125.184C127.106 125.138 127.014 125.092 126.968 125.046C126.876 125 126.83 124.954 126.646 124.908C126.14 124.724 125.68 124.77 125.22 124.77C124.99 124.77 124.76 124.77 124.53 124.816L124.116 124.862C124.024 124.908 123.886 124.862 123.84 125L123.656 125.23C123.104 126.058 122.69 126.84 122.276 127.576C121.862 128.312 121.54 128.956 121.264 129.416C120.114 131.67 119.976 132.176 120.16 132.268C120.344 132.36 120.666 131.992 121.908 129.784C122.46 128.864 123.334 127.208 124.3 125.69C124.392 125.552 124.346 125.644 124.346 125.598L124.576 125.552C124.806 125.552 125.036 125.506 125.22 125.506C125.634 125.506 126.094 125.506 126.37 125.598L126.462 125.644L126.6 125.69C126.692 125.736 126.784 125.782 126.876 125.828C127.06 125.92 127.244 125.966 127.428 126.012C127.796 126.104 128.118 126.196 128.394 126.196C128.992 126.242 129.452 126.196 129.82 126.104C130.188 126.012 130.464 125.92 130.648 125.828C131.016 125.69 131.108 125.598 131.062 125.506ZM113.72 119.02C113.812 119.066 113.904 119.02 114.226 118.698C114.548 118.422 114.962 117.824 115.928 117.134C116.388 116.812 117.032 116.398 117.86 116.03C118.688 115.708 119.654 115.432 120.62 115.34C122.598 115.11 124.668 115.478 125.818 115.754C127.198 116.076 127.98 116.352 128.486 116.444C128.946 116.582 129.13 116.536 129.13 116.444C129.176 116.352 129.084 116.214 128.624 115.984C128.164 115.754 127.382 115.386 126.002 115.018C124.806 114.696 122.69 114.282 120.574 114.512C119.516 114.65 118.458 114.926 117.584 115.294C116.71 115.662 116.02 116.122 115.514 116.536C114.502 117.364 114.088 118.054 113.858 118.422C113.674 118.836 113.674 118.974 113.72 119.02ZM120.574 123.804C120.39 123.758 120.252 123.896 119.976 124.724C119.7 125.506 119.148 127.576 118.964 128.404C118.734 129.416 118.826 129.646 119.01 129.692C119.194 129.738 119.378 129.6 119.7 128.634C119.976 127.806 120.528 125.782 120.712 124.954C120.804 124.08 120.758 123.85 120.574 123.804ZM118.642 120.86C118.504 120.768 118.32 120.768 117.952 121.274C117.584 121.734 116.756 122.93 116.48 123.482C116.158 124.126 116.204 124.31 116.342 124.402C116.526 124.494 116.664 124.448 117.078 123.896C117.446 123.39 118.228 122.194 118.504 121.688C118.78 121.09 118.78 120.952 118.642 120.86Z" fill="#101828"/>
<path d="M117.676 118.606C117.584 118.468 117.4 118.422 116.986 118.698C116.572 118.928 115.56 119.71 115.238 120.078C114.824 120.492 114.824 120.676 114.916 120.814C115.054 120.952 115.192 120.998 115.698 120.63C116.112 120.354 117.078 119.572 117.4 119.204C117.768 118.882 117.814 118.744 117.676 118.606ZM33.1281 146.344C33.1281 146.39 33.45 146.436 34.324 146.528C35.244 146.574 36.6701 146.62 38.9701 146.666C43.5241 146.758 51.298 146.804 64.224 146.758C88.696 146.712 151.072 146.528 176.786 146.482C191.874 146.436 200.844 146.39 206.042 146.39C208.664 146.344 210.32 146.344 211.286 146.344C212.298 146.298 212.666 146.252 212.666 146.206C212.666 146.16 212.344 146.068 211.332 146.022C210.366 145.93 208.71 145.838 206.18 145.792C201.074 145.654 192.196 145.608 177.2 145.562C151.624 145.516 89.3401 145.746 64.8681 145.884C51.7581 145.976 43.8461 146.022 39.2001 146.114C34.5081 146.16 33.1281 146.252 33.1281 146.344ZM196.98 150.944C196.98 150.898 196.704 150.852 195.876 150.806C195.094 150.76 193.76 150.76 191.736 150.714C187.688 150.668 180.742 150.622 169.196 150.576C147.346 150.53 91.6401 150.53 68.6861 150.576C55.2081 150.622 47.2041 150.668 42.5581 150.714C40.2581 150.76 38.7401 150.76 37.8661 150.806C36.9461 150.852 36.624 150.898 36.624 150.944C36.624 150.99 36.9461 151.036 37.8201 151.082C38.6941 151.128 40.1661 151.174 42.4201 151.174C46.9741 151.22 54.9321 151.266 68.3181 151.312C91.1801 151.358 146.794 151.358 168.644 151.312C180.328 151.266 187.412 151.22 191.598 151.174C193.668 151.128 195.048 151.128 195.876 151.082C196.704 151.036 196.98 150.944 196.98 150.944Z" fill="#101828"/>
<path d="M123.15 135.258C123.288 135.166 123.334 134.982 122.966 134.246C122.644 133.556 121.678 131.808 121.264 131.118C121.034 130.704 120.896 130.474 120.804 130.382C120.758 130.336 120.712 130.336 120.666 130.29C120.62 130.244 120.62 130.29 120.574 130.244C120.528 130.244 120.482 130.198 120.39 130.244C120.344 130.244 120.344 130.29 120.344 130.336C120.344 130.382 120.344 130.428 120.344 130.474C120.344 130.658 120.436 130.98 120.62 131.394C120.942 132.176 121.908 133.878 122.322 134.522C122.782 135.258 122.966 135.35 123.15 135.258Z" fill="white"/>
<path d="M191.966 129.416C191.966 129.232 191.368 129.14 188.24 129.094C185.296 129.048 177.798 129.048 174.67 129.094C171.036 129.14 170.346 129.278 170.346 129.462C170.346 129.646 170.99 129.784 174.624 129.83C177.706 129.876 185.158 129.83 188.102 129.784C191.276 129.692 191.966 129.6 191.966 129.416ZM147.576 129.554C147.576 129.37 147.254 129.278 145.69 129.232C144.172 129.186 140.354 129.186 138.79 129.232C136.95 129.278 136.582 129.416 136.582 129.6C136.582 129.784 136.904 129.922 138.744 129.968C140.308 130.014 144.126 130.014 145.598 129.922C147.254 129.83 147.576 129.692 147.576 129.554ZM138.376 134.614C138.284 134.844 138.606 135.074 140.262 135.81C141.09 136.132 142.47 136.73 143.896 137.282C145.322 137.88 146.702 138.524 147.484 138.892C148.45 139.352 149.002 139.628 149.324 139.766C149.692 139.904 149.83 139.858 149.876 139.766C149.968 139.674 149.922 139.536 149.646 139.26C149.37 138.984 148.864 138.616 147.944 138.064C147.162 137.604 145.736 136.914 144.31 136.316C142.884 135.718 141.458 135.212 140.63 134.936C138.882 134.384 138.468 134.384 138.376 134.614ZM150.934 139.674C150.98 139.72 151.118 139.72 151.44 139.536C151.762 139.352 152.268 138.938 153.142 138.34C153.556 138.018 154.154 137.742 154.844 137.328C155.212 137.19 155.58 137.006 155.994 136.822C156.408 136.684 156.822 136.546 157.236 136.408C158.938 135.948 160.778 135.902 161.79 136.04C163.032 136.178 163.722 136.362 164.136 136.454C164.55 136.546 164.642 136.546 164.734 136.454C164.78 136.362 164.734 136.224 164.32 135.994C163.906 135.764 163.216 135.488 161.928 135.304C160.824 135.12 158.892 135.12 157.098 135.626C156.638 135.764 156.224 135.902 155.764 136.086C155.35 136.27 154.936 136.454 154.568 136.638C153.832 137.052 153.188 137.42 152.82 137.742C151.9 138.386 151.44 138.892 151.164 139.168C150.934 139.49 150.888 139.628 150.934 139.674Z" fill="#101828"/>
<path d="M166.39 135.626C166.528 135.442 165.792 134.844 161.974 132.774C161.054 132.268 159.812 131.624 158.34 130.842C157.604 130.474 156.868 130.06 156.086 129.646C155.672 129.416 155.304 129.232 154.89 129.002L154.614 128.818L154.476 128.726C154.43 128.68 154.292 128.588 154.154 128.634L153.418 128.588C149.646 128.45 145.966 129.416 143.896 130.198C139.066 132.038 138.56 133.464 138.836 133.51C138.882 133.51 138.928 133.464 139.02 133.372C139.158 133.28 139.342 133.142 139.71 132.912C140.4 132.452 141.688 131.762 144.08 130.888C146.058 130.198 149.646 129.232 153.28 129.37C153.51 129.37 153.74 129.37 153.97 129.416H154.062L154.154 129.462L154.476 129.646C154.89 129.876 155.258 130.06 155.672 130.29C156.454 130.704 157.236 131.118 157.972 131.486C159.444 132.222 160.686 132.866 161.606 133.372C165.47 135.35 166.298 135.718 166.39 135.626Z" fill="#101828"/>
<path d="M167.816 137.098C167.862 137.19 168.138 137.006 168.92 136.408C169.334 136.132 169.886 135.81 170.714 135.534C171.542 135.258 172.646 135.12 174.026 134.982C174.67 134.936 175.452 134.936 176.28 135.12C176.694 135.212 177.154 135.304 177.614 135.442C177.844 135.534 178.074 135.58 178.258 135.718C178.35 135.764 178.488 135.81 178.58 135.856L178.672 135.902C178.718 135.948 178.764 135.994 178.856 135.994C178.994 136.04 179.086 136.04 179.224 135.994C179.5 135.902 179.592 135.856 179.73 135.764C179.868 135.672 179.96 135.58 180.098 135.488C180.144 135.442 180.236 135.396 180.282 135.35C180.328 135.304 180.374 135.258 180.466 135.12C180.604 134.89 180.742 134.66 180.604 134.43C180.558 134.338 180.466 134.246 180.374 134.154L180.144 133.97L179.776 133.74C179.546 133.602 179.27 133.418 179.04 133.28C178.028 132.682 177.016 132.084 175.912 131.532C173.796 130.428 171.588 129.416 169.518 128.772C167.402 128.128 165.424 128.082 163.998 128.174C162.342 128.266 161.008 128.542 159.996 128.772C158.984 129.048 158.248 129.278 157.696 129.508C156.638 129.922 156.408 130.152 156.408 130.244C156.454 130.336 156.73 130.29 157.788 129.968C158.34 129.83 159.03 129.6 160.042 129.416C161.054 129.232 162.296 129.002 163.906 128.91C165.286 128.864 167.172 128.864 169.15 129.508C171.174 130.106 173.336 131.118 175.406 132.222C176.464 132.774 177.476 133.326 178.488 133.924C178.718 134.062 178.994 134.2 179.224 134.384L179.592 134.614C179.684 134.66 179.868 134.798 179.822 134.752C179.776 134.798 179.73 134.844 179.684 134.89C179.5 135.028 179.316 135.212 179.132 135.304C179.086 135.304 179.132 135.304 179.086 135.304L179.04 135.258L178.948 135.212C178.902 135.166 178.81 135.166 178.764 135.12C178.534 135.028 178.258 134.89 178.028 134.844C177.522 134.66 177.062 134.568 176.602 134.476C175.682 134.338 174.854 134.292 174.164 134.338C172.692 134.476 171.588 134.706 170.668 134.982C169.748 135.304 169.15 135.718 168.782 136.04C167.908 136.73 167.77 137.006 167.816 137.098Z" fill="#101828"/>
<path d="M166.574 136.73C166.666 136.684 166.62 136.546 166.574 136.178C166.574 136.086 166.574 135.994 166.574 135.856C166.574 135.81 166.574 135.81 166.62 135.764C166.62 135.764 166.666 135.764 166.666 135.718C166.712 135.672 166.758 135.672 166.758 135.626C166.896 135.534 167.08 135.396 167.264 135.258C167.448 135.12 167.678 134.982 167.954 134.844C168.92 134.292 170.714 133.372 172.692 133.096C174.67 132.728 176.648 133.05 177.752 133.464C178.396 133.694 178.902 133.924 179.27 134.154C179.454 134.246 179.638 134.338 179.776 134.43C179.914 134.522 180.006 134.614 180.144 134.66C180.558 134.89 180.696 134.936 180.788 134.89C180.834 134.798 180.788 134.66 180.466 134.338C180.374 134.246 180.282 134.154 180.144 134.016C180.006 133.924 179.822 133.786 179.638 133.648C179.27 133.372 178.764 133.096 178.074 132.82C176.924 132.36 174.762 131.946 172.646 132.36C170.53 132.682 168.644 133.648 167.678 134.292C167.172 134.66 166.758 134.982 166.482 135.258C166.39 135.35 166.298 135.396 166.252 135.488C166.206 135.534 166.206 135.626 166.16 135.672C166.16 135.718 166.16 135.81 166.16 135.856C166.16 136.04 166.206 136.178 166.206 136.316C166.344 136.73 166.528 136.776 166.574 136.73ZM148.266 139.904C148.312 139.95 148.496 139.95 148.864 139.72C149.278 139.49 149.922 138.984 151.072 138.248C152.13 137.558 154.062 136.362 156.178 135.672C157.236 135.35 158.34 135.212 159.352 135.258C160.364 135.258 161.192 135.534 161.836 135.718C163.308 136.178 164.136 136.592 164.642 136.776C165.148 136.96 165.332 136.96 165.378 136.868C165.424 136.776 165.332 136.638 164.872 136.362C164.412 136.086 163.63 135.58 162.112 135.028C161.79 134.89 161.376 134.798 160.962 134.706C160.502 134.614 159.996 134.522 159.49 134.522C158.432 134.476 157.19 134.614 156.086 134.936C153.832 135.626 151.854 136.96 150.796 137.696C149.646 138.524 149.048 139.076 148.68 139.398C148.266 139.674 148.22 139.812 148.266 139.904ZM207.836 126.196C207.836 126.38 209.078 126.518 215.15 126.518C216.576 126.518 218.554 126.518 220.854 126.518C223.108 126.518 225.684 126.518 228.214 126.61C228.536 126.61 228.858 126.656 229.088 126.702C229.18 126.702 229.364 126.932 229.502 127.162C229.778 127.668 229.916 128.266 229.962 128.818C229.962 129.094 229.962 129.37 229.87 129.508C229.916 129.554 229.594 129.646 229.318 129.738C228.766 129.922 228.168 130.06 227.616 130.198C225.362 130.75 223.384 131.256 221.958 131.67C215.104 133.418 213.862 133.924 213.908 134.108C213.954 134.292 215.196 134.016 222.05 132.406C223.522 132.038 225.5 131.578 227.708 131.026C228.26 130.888 228.858 130.75 229.41 130.566L229.87 130.428C230.054 130.336 230.192 130.336 230.468 130.106C230.606 129.922 230.698 129.692 230.744 129.508C230.79 129.324 230.79 129.14 230.79 128.956C230.79 128.266 230.606 127.622 230.33 126.978C230.146 126.656 230.008 126.334 229.548 126.058C229.502 126.012 229.41 126.012 229.364 125.966L229.226 125.92L228.95 125.874L228.444 125.828C225.868 125.736 223.338 125.782 221.038 125.782C218.784 125.828 216.76 125.828 215.334 125.828C209.124 125.92 207.836 126.012 207.836 126.196ZM189.758 130.842C189.804 131.026 190.31 130.98 192.84 130.474C195.232 129.968 201.258 128.496 203.696 127.852C206.594 127.116 207.1 126.84 207.054 126.656C207.008 126.472 206.456 126.472 203.558 127.116C201.074 127.668 195.094 129.14 192.748 129.738C190.218 130.428 189.712 130.704 189.758 130.842Z" fill="#101828"/>
<path d="M227.432 127.484C227.386 127.3 227.11 127.254 225.684 127.484C224.994 127.576 223.844 127.806 222.648 128.082C221.452 128.358 220.256 128.68 219.612 128.91C218.002 129.416 217.772 129.692 217.818 129.83C217.864 130.014 218.186 130.014 219.796 129.6C221.176 129.232 224.488 128.45 225.822 128.128C227.202 127.806 227.478 127.622 227.432 127.484ZM190.218 132.912C190.172 132.728 189.988 132.682 189.068 132.866C188.654 132.958 187.872 133.142 187.136 133.372C186.952 133.418 186.768 133.51 186.584 133.556C186.492 133.602 186.4 133.602 186.308 133.648C186.216 133.694 186.124 133.74 185.986 133.832C185.756 134.062 185.664 134.292 185.664 134.476C185.618 134.66 185.618 134.798 185.618 134.936C185.664 135.534 185.802 135.856 185.894 136.04C185.986 136.224 186.078 136.224 186.17 136.224C186.262 136.178 186.308 136.132 186.308 135.948C186.308 135.764 186.262 135.442 186.308 134.982C186.308 134.798 186.354 134.476 186.446 134.43C186.446 134.43 186.446 134.43 186.492 134.43C186.538 134.43 186.538 134.384 186.584 134.384C186.676 134.338 186.722 134.338 186.814 134.292C186.998 134.246 187.182 134.154 187.366 134.108C188.102 133.878 188.838 133.648 189.252 133.51C190.126 133.234 190.264 133.096 190.218 132.912ZM228.812 129.646C228.628 129.646 228.536 129.738 228.49 130.152C228.444 130.52 228.582 131.486 228.582 131.854C228.628 132.314 228.766 132.406 228.95 132.406C229.134 132.406 229.272 132.36 229.318 131.854C229.364 131.44 229.272 130.474 229.18 130.06C229.088 129.692 228.996 129.646 228.812 129.646Z" fill="#101828"/>
<path d="M230.238 131.992C230.192 131.762 228.904 131.992 222.832 133.602C221.406 133.97 219.428 134.522 217.128 135.12C216.576 135.258 215.978 135.442 215.38 135.58C215.104 135.672 214.782 135.718 214.46 135.81C214.184 135.902 213.862 135.948 213.586 136.04C213.494 136.086 213.31 136.086 213.172 136.086H212.666C212.344 136.086 212.022 136.086 211.7 136.086C211.056 136.086 210.366 136.086 209.722 136.086C204.432 136.132 199.096 136.178 195.968 136.224C188.654 136.362 187.274 136.546 187.274 136.776C187.274 137.006 188.608 137.19 195.876 137.19C199.004 137.19 204.294 137.144 209.63 137.098C210.964 137.098 212.298 137.052 213.586 137.052C213.678 137.052 213.816 137.006 213.908 137.006L214.138 136.96L214.598 136.822C214.92 136.73 215.196 136.638 215.518 136.592C216.116 136.408 216.714 136.27 217.266 136.086C219.52 135.442 221.498 134.89 222.924 134.476C229.042 132.728 230.284 132.222 230.238 131.992Z" fill="#101828"/>
<path d="M212.574 136.638C212.712 136.73 212.896 136.684 213.034 136.27C213.172 135.902 213.172 134.936 212.988 134.568C212.804 134.108 212.62 134.062 212.482 134.154C212.298 134.246 212.252 134.338 212.298 134.706C212.344 135.028 212.39 135.856 212.344 136.132C212.39 136.454 212.436 136.546 212.574 136.638ZM189.39 133.97C189.39 134.016 189.436 134.016 189.574 134.016C189.62 134.016 189.712 133.97 189.804 133.924C189.896 133.878 189.988 133.832 190.08 133.694C190.264 133.464 190.494 133.096 190.494 132.59C190.494 132.314 190.494 132.038 190.448 131.762C190.448 131.67 190.402 131.624 190.402 131.532L190.356 131.394C190.356 131.348 190.356 131.394 190.356 131.348C190.356 131.302 190.356 131.302 190.31 131.256H190.356C190.356 131.256 190.402 131.256 190.448 131.256H190.494H190.632C190.724 131.256 190.862 131.256 191 131.302C194.726 131.532 204.248 131.578 208.158 131.486C212.758 131.44 213.632 131.256 213.632 131.072C213.632 130.888 212.804 130.796 208.204 130.75C204.294 130.704 194.818 130.704 191.092 130.566C190.954 130.566 190.862 130.566 190.724 130.566C190.678 130.566 190.586 130.566 190.54 130.566C190.448 130.566 190.356 130.566 190.218 130.52C189.804 130.474 189.39 130.428 189.16 130.428C189.252 130.566 189.344 130.75 189.436 130.888C189.528 131.026 189.62 131.164 189.666 131.302C189.712 131.348 189.712 131.44 189.758 131.486L189.804 131.578C189.804 131.624 189.85 131.716 189.85 131.762C189.942 131.992 189.942 132.222 189.942 132.452C189.942 132.866 189.85 133.142 189.758 133.326C189.712 133.418 189.666 133.51 189.574 133.556C189.528 133.602 189.482 133.648 189.436 133.694C189.436 133.878 189.39 133.924 189.39 133.97Z" fill="#101828"/>
<path d="M213.632 130.106C213.54 130.152 213.724 130.336 213.908 131.072C214 131.44 214.138 131.946 214.138 132.636C214.138 132.82 214.138 133.004 214.092 133.188C214.046 133.372 214 133.556 213.908 133.648C213.862 133.694 213.816 133.694 213.816 133.74C213.77 133.74 213.586 133.74 213.494 133.786C213.264 133.786 212.988 133.832 212.712 133.832C208.388 133.924 197.302 133.832 192.748 133.832C187.412 133.832 186.354 133.924 186.354 134.108C186.354 134.292 187.32 134.43 192.656 134.522C197.21 134.614 208.25 134.706 212.62 134.522C212.896 134.522 213.172 134.476 213.448 134.476C213.586 134.476 213.724 134.43 213.862 134.43C213.908 134.43 214.046 134.384 214.138 134.338C214.23 134.292 214.322 134.246 214.368 134.154C214.598 133.878 214.644 133.602 214.69 133.372C214.736 133.142 214.736 132.912 214.736 132.728C214.69 131.946 214.506 131.348 214.368 130.98C214.184 130.566 214 130.336 213.908 130.244C213.724 130.106 213.678 130.106 213.632 130.106ZM188.838 140.272C188.838 140.502 190.264 140.64 197.348 140.732C200.706 140.778 206.64 140.824 212.62 140.824H213.172C213.31 140.824 213.724 140.778 213.862 140.732C214.23 140.64 214.598 140.548 214.966 140.456C215.702 140.272 216.392 140.042 217.128 139.858C218.508 139.444 219.888 139.03 221.176 138.616C223.752 137.834 226.052 137.098 227.708 136.546C228.49 136.27 229.226 136.04 229.916 135.81C230.238 135.718 230.56 135.58 230.882 135.488C231.02 135.442 231.204 135.396 231.342 135.35C231.434 135.304 231.572 135.212 231.71 135.166C231.756 135.12 231.848 135.12 231.848 135.074C231.894 135.028 231.894 134.982 231.94 134.89C231.986 134.798 231.986 134.614 232.032 134.522C232.032 134.43 232.032 134.384 232.032 134.292C232.032 134.154 232.032 134.016 232.032 133.878C232.032 133.602 232.032 133.372 231.986 133.096C231.986 132.866 231.94 132.636 231.94 132.406C231.894 132.176 231.94 132.038 231.848 131.67C231.802 131.44 231.572 131.348 231.388 131.256C231.204 131.164 231.112 131.164 230.974 131.118C230.744 131.072 230.514 131.072 230.33 131.026C229.962 131.026 229.686 131.026 229.456 131.072C229.042 131.118 228.904 131.21 228.904 131.256C228.904 131.348 229.042 131.394 229.456 131.44C229.64 131.486 229.916 131.486 230.238 131.578C230.422 131.624 230.606 131.67 230.79 131.716C230.882 131.762 231.02 131.808 231.066 131.808C231.112 131.854 231.158 131.854 231.158 131.9C231.158 131.946 231.158 131.946 231.158 132.038C231.158 132.13 231.158 132.222 231.158 132.314C231.158 132.498 231.158 132.728 231.158 132.958C231.158 133.188 231.158 133.418 231.158 133.694C231.158 133.832 231.158 133.97 231.158 134.062C231.158 134.108 231.158 134.2 231.158 134.246C231.158 134.292 231.158 134.292 231.158 134.292C231.158 134.338 231.112 134.338 231.112 134.338C230.974 134.384 230.836 134.43 230.698 134.476C230.376 134.568 230.1 134.66 229.732 134.752C229.042 134.936 228.352 135.166 227.524 135.442C225.868 135.948 223.568 136.638 220.992 137.42C219.704 137.788 218.324 138.202 216.944 138.616C216.254 138.8 215.518 139.03 214.828 139.214C214.46 139.306 214.092 139.398 213.77 139.49L213.494 139.536C213.448 139.536 213.402 139.536 213.356 139.582C213.218 139.582 212.988 139.582 212.804 139.582C206.824 139.582 200.89 139.582 197.532 139.628C190.356 139.904 188.838 140.042 188.838 140.272ZM187.32 136.822C187.228 136.776 187.136 136.776 186.998 136.822C186.906 136.868 186.768 137.052 186.676 137.328C186.584 137.604 186.538 138.156 186.63 138.662C186.722 139.168 186.952 139.628 187.09 139.904C187.274 140.18 187.504 140.364 187.642 140.41C187.688 140.41 187.734 140.41 187.78 140.41C187.826 140.41 187.872 140.41 187.872 140.364C187.918 140.318 187.964 140.272 187.964 140.226C187.964 140.18 187.964 140.088 188.01 140.042C188.01 139.996 188.056 139.95 188.056 139.904C188.056 139.812 188.01 139.674 187.918 139.398C187.826 139.168 187.688 138.8 187.596 138.432C187.504 138.064 187.504 137.696 187.504 137.466C187.504 137.236 187.504 137.098 187.458 137.006C187.504 136.96 187.412 136.868 187.32 136.822Z" fill="#101828"/>
<path d="M212.942 136.638C212.896 136.73 212.896 136.776 212.896 136.868C212.896 136.96 212.942 137.052 212.988 137.282C213.034 137.512 213.08 137.926 213.08 138.386C213.08 138.846 212.988 139.26 212.942 139.536C212.896 139.812 212.85 139.996 212.85 140.088C212.85 140.18 212.896 140.272 212.942 140.318C212.988 140.41 213.08 140.41 213.218 140.364C213.356 140.272 213.54 140.088 213.632 139.766C213.724 139.49 213.862 138.938 213.862 138.432C213.862 137.926 213.77 137.374 213.632 137.098C213.494 136.776 213.31 136.592 213.172 136.546C213.034 136.5 212.988 136.546 212.942 136.638ZM47.112 66.856C46.928 66.718 46.146 67.5 42.88 71.778C39.798 75.826 32.07 86.176 28.942 90.5C25.262 95.56 24.664 96.618 24.894 96.756C25.078 96.894 25.906 96.112 29.678 91.144C32.898 86.912 40.58 76.562 43.57 72.422C46.744 68.006 47.296 66.994 47.112 66.856Z" fill="#101828"/>
<path d="M26.596 97.814C26.688 97.814 26.826 97.722 26.826 97.354C26.826 97.17 26.78 96.94 26.688 96.664C26.55 96.388 26.366 96.02 25.906 95.698C25.722 95.56 25.446 95.422 25.078 95.33C24.756 95.238 24.296 95.284 23.928 95.468C23.514 95.652 23.192 95.974 22.962 96.342C22.732 96.71 22.64 97.17 22.64 97.63C22.64 98.504 23.054 99.378 23.698 99.838C24.02 100.068 24.388 100.252 24.756 100.298C25.124 100.344 25.446 100.298 25.722 100.16C26.32 99.884 26.642 99.424 26.78 99.102C26.918 98.734 26.918 98.458 26.918 98.274C26.826 97.906 26.688 97.814 26.596 97.814C26.458 97.814 26.366 97.906 26.274 98.182C26.228 98.32 26.136 98.504 25.998 98.688C25.86 98.872 25.676 99.102 25.354 99.24C25.078 99.332 24.71 99.332 24.296 99.01C23.928 98.734 23.652 98.182 23.652 97.63C23.652 97.078 23.928 96.572 24.296 96.388C24.664 96.204 25.078 96.296 25.354 96.434C25.906 96.756 26.09 97.216 26.274 97.446C26.366 97.768 26.458 97.814 26.596 97.814Z" fill="#101828"/>
<path d="M39.476 135.672C39.706 135.626 39.476 134.43 37.682 129.002C36.808 126.426 35.244 121.872 33.588 117.318C31.932 112.764 30.184 108.164 29.126 105.542C27.838 102.46 26.964 100.62 26.366 99.608C25.722 98.596 25.492 98.366 25.4 98.458C25.308 98.55 25.354 98.826 25.814 99.884C26.228 100.942 27.01 102.736 28.206 105.818C29.218 108.44 30.966 112.994 32.576 117.548C34.232 122.102 35.842 126.61 36.762 129.186C38.74 134.614 39.246 135.718 39.476 135.672ZM46.79 69.478C46.744 69.478 46.652 69.57 46.514 69.846C46.376 70.122 46.192 70.628 45.962 71.41C45.778 72.192 45.548 73.296 45.502 74.768C45.502 75.504 45.548 76.332 45.778 77.298C45.962 78.218 46.33 79.276 46.974 80.288C47.572 81.254 48.63 82.266 50.056 82.818C51.482 83.37 53.184 83.508 54.932 83.37C56.68 83.232 58.52 82.818 60.268 81.944C61.97 81.07 63.58 79.828 64.868 78.356C66.202 76.884 67.214 75.182 67.996 73.388C68.364 72.514 68.686 71.594 68.824 70.628C68.962 69.708 69.054 68.834 69.054 67.914C69.054 66.994 68.916 66.074 68.502 65.246C68.088 64.418 67.49 63.82 66.846 63.314C66.248 62.854 65.604 62.44 65.006 62.164C64.408 61.842 63.81 61.566 63.258 61.382C61.97 60.922 60.728 60.738 59.624 60.692C58.52 60.646 57.554 60.692 56.726 60.83C55.024 61.06 53.828 61.52 52.954 61.888C52.54 62.072 52.172 62.256 51.942 62.44C51.666 62.578 51.482 62.716 51.344 62.854C51.068 63.084 50.976 63.176 51.022 63.268C51.068 63.314 51.206 63.314 51.528 63.176C51.666 63.13 51.896 62.992 52.172 62.9C52.31 62.854 52.448 62.762 52.632 62.716C52.816 62.67 53 62.578 53.184 62.532C54.012 62.256 55.162 61.888 56.772 61.704C58.382 61.566 60.452 61.52 62.844 62.302C63.074 62.394 63.35 62.486 63.626 62.624C63.902 62.762 64.178 62.9 64.454 63.038C65.006 63.36 65.604 63.682 66.156 64.096C66.708 64.51 67.214 65.016 67.536 65.614C67.858 66.212 68.042 66.994 68.042 67.776C68.042 68.604 67.95 69.432 67.858 70.306C67.72 71.134 67.444 72.008 67.122 72.836C66.432 74.492 65.466 76.102 64.27 77.528C63.074 78.908 61.602 80.104 60.038 80.932C58.474 81.76 56.772 82.22 55.116 82.358C53.46 82.496 51.942 82.404 50.654 81.99C50.01 81.76 49.458 81.484 48.998 81.116C48.538 80.748 48.17 80.334 47.894 79.92C47.296 79.046 46.928 78.126 46.698 77.252C46.468 76.378 46.376 75.596 46.33 74.86C46.284 73.434 46.422 72.376 46.56 71.548C46.79 70.03 46.882 69.524 46.79 69.478Z" fill="#101828"/>
<path d="M38.418 133.372C38.418 133.326 38.326 133.28 38.004 133.234C37.728 133.188 37.222 133.188 36.486 133.234C35.75 133.28 34.738 133.418 33.45 133.74C32.162 134.108 30.506 134.706 28.804 135.994C28.068 136.546 27.286 137.282 26.642 138.34C26.32 138.892 25.998 139.444 25.952 140.226C25.952 140.41 25.952 140.686 26.09 140.916L26.228 141.192C26.274 141.284 26.366 141.376 26.412 141.422C26.688 141.744 27.102 141.928 27.424 142.066C28.16 142.342 28.85 142.388 29.586 142.48C30.322 142.526 31.058 142.572 31.794 142.618C33.266 142.664 34.784 142.664 36.302 142.71C39.338 142.71 42.466 142.756 45.364 142.434C46.79 142.296 48.17 142.02 49.458 141.652C50.102 141.468 50.7 141.238 51.252 140.916C51.528 140.778 51.804 140.594 52.08 140.364C52.126 140.318 52.218 140.226 52.264 140.18L52.448 139.95C52.494 139.858 52.54 139.766 52.586 139.628C52.632 139.49 52.586 139.352 52.632 139.26C52.494 138.8 52.356 138.662 52.218 138.432C52.08 138.248 51.942 138.064 51.85 137.88C51.574 137.558 51.344 137.282 51.114 137.098C50.654 136.638 50.286 136.362 49.918 136.086C48.906 135.35 47.94 134.798 47.02 134.384C46.1 133.97 45.272 133.694 44.49 133.51C42.972 133.142 41.822 133.05 40.948 133.05C39.246 133.05 38.786 133.188 38.786 133.326C38.786 133.464 39.246 133.51 40.856 133.694C41.638 133.786 42.742 133.924 44.168 134.338C44.858 134.522 45.686 134.798 46.514 135.212C47.388 135.58 48.262 136.132 49.182 136.822C49.504 137.098 49.872 137.374 50.286 137.788C50.47 138.018 50.746 138.248 50.976 138.524C51.114 138.662 51.206 138.846 51.344 138.984C51.39 139.076 51.436 139.168 51.482 139.26C51.528 139.352 51.528 139.398 51.574 139.444C51.574 139.444 51.574 139.444 51.528 139.49C51.482 139.536 51.482 139.536 51.436 139.582C51.39 139.628 51.344 139.674 51.344 139.674C51.206 139.812 50.976 139.95 50.746 140.088C50.286 140.318 49.734 140.548 49.136 140.732C47.94 141.054 46.652 141.284 45.226 141.468C42.42 141.79 39.384 141.744 36.348 141.744C34.83 141.744 33.312 141.744 31.886 141.698C31.15 141.652 30.46 141.652 29.77 141.606C29.08 141.56 28.436 141.468 27.838 141.284C27.562 141.192 27.286 141.1 27.148 140.916C27.102 140.87 27.056 140.824 27.056 140.778C27.01 140.732 26.964 140.686 26.964 140.64C26.964 140.594 26.872 140.548 26.872 140.502C26.872 140.502 26.872 140.456 26.872 140.41C26.872 140.226 26.918 139.95 27.01 139.72C27.102 139.49 27.194 139.214 27.332 138.984C27.838 138.064 28.574 137.374 29.172 136.822C30.736 135.534 32.254 134.89 33.496 134.476C34.738 134.062 35.704 133.878 36.44 133.74C37.176 133.602 37.636 133.51 37.912 133.464C38.28 133.51 38.418 133.464 38.418 133.372Z" fill="#101828"/>
<path d="M52.034 139.168C52.034 139.214 52.126 139.26 52.402 139.306C52.678 139.352 53.092 139.398 53.828 139.398C54.518 139.398 55.438 139.306 56.68 139.03C57.278 138.892 57.968 138.708 58.75 138.294C58.934 138.202 59.118 138.064 59.302 137.88C59.394 137.788 59.486 137.65 59.532 137.466C59.578 137.282 59.578 137.19 59.578 137.052C59.578 136.592 59.624 136.132 59.624 135.672C59.67 133.832 59.716 131.302 59.67 128.404C59.67 126.932 59.67 125.414 59.578 123.804C59.532 123.022 59.532 122.194 59.44 121.366C59.44 121.182 59.394 120.952 59.394 120.768C59.394 120.584 59.348 120.354 59.302 120.124L59.256 119.802C59.21 119.664 59.164 119.526 59.072 119.388C58.98 119.296 58.888 119.158 58.796 119.066C58.704 118.974 58.612 118.882 58.52 118.836C57.738 118.33 56.91 118.1 56.082 117.916C55.254 117.732 54.426 117.64 53.644 117.548C52.034 117.41 50.424 117.41 48.952 117.64C48.216 117.778 47.48 117.916 46.79 118.33C46.606 118.422 46.468 118.56 46.33 118.79C46.192 118.974 46.1 119.25 46.1 119.48C46.1 119.802 46.1 120.124 46.1 120.446C46.1 121.688 46.1 122.838 46.1 123.804C46.1 128.312 46.146 131.026 46.192 132.59C46.238 134.154 46.33 134.568 46.422 134.568C46.514 134.568 46.606 134.154 46.652 132.636C46.744 131.118 46.79 128.45 46.836 123.942C46.836 122.976 46.836 121.872 46.882 120.584C46.882 120.262 46.882 119.94 46.882 119.618C46.882 119.434 46.882 119.388 46.928 119.296C46.974 119.204 47.02 119.112 47.158 119.066C47.618 118.744 48.308 118.56 48.998 118.422C50.378 118.192 51.942 118.192 53.506 118.284C54.288 118.33 55.07 118.468 55.852 118.606C56.634 118.79 57.416 118.974 58.014 119.342C58.152 119.434 58.29 119.526 58.382 119.664C58.428 119.71 58.474 119.756 58.474 119.848C58.474 119.894 58.52 119.894 58.52 119.94C58.52 119.986 58.52 120.032 58.566 120.078C58.658 120.446 58.704 120.86 58.704 121.228C58.75 122.01 58.796 122.838 58.842 123.62C58.888 125.184 58.934 126.748 58.934 128.174C58.98 131.072 58.934 133.602 58.934 135.442C58.934 135.948 58.934 136.408 58.934 136.822C58.934 136.914 58.934 137.052 58.934 137.144C58.934 137.236 58.934 137.19 58.934 137.236C58.934 137.236 58.934 137.282 58.888 137.282C58.842 137.374 58.704 137.512 58.566 137.604C57.968 137.972 57.278 138.202 56.68 138.34C55.484 138.662 54.564 138.8 53.874 138.846C53.184 138.938 52.724 138.938 52.448 138.938C52.126 139.122 52.034 139.122 52.034 139.168Z" fill="#101828"/>
<path d="M57.9681 121.642C57.9221 121.458 57.554 121.504 55.852 121.642C55.024 121.688 53.5521 121.78 52.0801 121.734C50.6081 121.688 49.1361 121.596 48.3081 121.458C46.3301 121.182 46.0541 120.906 45.9161 121.09C45.8701 121.182 45.916 121.274 46.192 121.504C46.514 121.688 47.112 121.964 48.124 122.148C48.998 122.332 50.5161 122.47 51.9881 122.516C53.5061 122.562 54.9781 122.424 55.8061 122.332C57.6461 122.056 58.0141 121.78 57.9681 121.642ZM58.1061 129.646C58.0601 129.554 57.9681 129.508 57.6461 129.554C57.4621 129.554 57.232 129.6 57.002 129.646C56.726 129.692 56.358 129.738 55.944 129.784C55.116 129.876 53.6441 129.968 52.1261 129.876C50.6541 129.83 49.1361 129.646 48.3081 129.508C46.2841 129.14 46.0081 128.864 45.9161 129.048C45.8701 129.14 45.916 129.232 46.192 129.462C46.514 129.646 47.112 129.968 48.124 130.198C48.998 130.428 50.5621 130.612 52.0801 130.658C53.5981 130.704 55.1161 130.612 55.9901 130.474C56.9101 130.336 57.4621 130.152 57.7381 130.014C58.0601 129.83 58.1061 129.738 58.1061 129.646Z" fill="#101828"/>
<path d="M53.598 133.648C53.782 133.648 53.782 132.498 53.046 126.978C52.862 125.69 52.586 123.896 52.31 121.826C52.126 120.814 51.988 119.71 51.804 118.56L51.712 118.1C51.62 117.87 51.712 117.41 51.344 117.548H50.7C50.562 117.548 50.424 117.548 50.24 117.594C49.642 117.64 49.044 117.686 48.446 117.824C47.848 117.962 47.25 118.1 46.652 118.514L46.514 118.652L46.376 118.79L46.238 118.928C46.238 118.974 46.284 119.066 46.284 119.112L46.468 119.664C46.56 119.94 46.652 120.216 46.744 120.492C47.112 121.55 47.48 122.608 47.848 123.62C48.538 125.598 49.182 127.392 49.642 128.68C50.194 130.198 50.654 131.394 51.068 132.36C51.252 132.82 51.436 133.234 51.62 133.602C51.804 133.97 52.034 134.292 52.402 134.43C52.77 134.568 53.092 134.476 53.276 134.338C53.46 134.2 53.552 134.062 53.598 133.97C53.644 133.74 53.598 133.648 53.598 133.648C53.552 133.648 53.506 133.694 53.368 133.832C53.276 133.878 53.184 133.97 53.046 134.062C52.908 134.108 52.77 134.154 52.586 134.062C52.218 133.878 51.988 133.142 51.62 132.222C51.298 131.256 50.838 130.06 50.332 128.542C49.872 127.254 49.274 125.506 48.584 123.482C48.216 122.47 47.848 121.458 47.48 120.354C47.388 120.078 47.296 119.802 47.204 119.526L47.066 119.158C47.066 119.158 47.112 119.112 47.158 119.112C47.204 119.066 47.25 119.066 47.296 119.02C47.388 118.974 47.526 118.928 47.664 118.882C47.894 118.79 48.17 118.698 48.446 118.652C48.998 118.514 49.55 118.468 50.102 118.422L50.516 118.376H50.838H50.884L50.93 118.606C51.114 119.71 51.298 120.814 51.436 121.826C51.758 123.896 52.034 125.69 52.264 126.978C53.184 132.498 53.414 133.648 53.598 133.648Z" fill="#101828"/>
<path d="M48.63 118.146C48.814 118.1 48.814 117.732 48.4 116.03C47.986 114.42 46.836 110.372 46.33 108.716C45.732 106.784 45.502 106.416 45.318 106.508C45.134 106.554 45.134 106.922 45.64 108.9C46.054 110.556 47.25 114.604 47.756 116.168C48.216 117.87 48.446 118.238 48.63 118.146Z" fill="white"/>
<path d="M58.2901 120.078C58.2901 119.894 58.1981 119.802 57.8761 119.756C57.7381 119.71 57.4621 119.664 57.1861 119.572C56.9561 119.48 56.726 119.342 56.634 119.25C56.496 119.158 56.404 119.066 56.312 119.066C56.22 119.02 56.128 119.066 56.082 119.112C55.99 119.158 55.944 119.204 55.944 119.296C55.944 119.388 55.9901 119.572 56.1281 119.756C56.2661 119.94 56.5881 120.17 56.9561 120.308C57.3241 120.446 57.6461 120.446 57.8761 120.446C58.2441 120.4 58.2901 120.262 58.2901 120.078ZM60.084 119.434C60.268 119.434 60.3601 119.25 60.4981 118.33C60.5901 117.456 60.6821 115.156 60.6361 114.19C60.6361 114.144 60.6361 114.052 60.6361 114.006C60.6361 113.914 60.6361 113.868 60.6361 113.776C60.5901 113.362 60.176 113.27 59.992 113.27C59.808 113.27 59.716 113.27 59.624 113.316C59.486 113.362 59.4401 113.454 59.4401 113.5C59.4401 113.592 59.486 113.638 59.624 113.73C59.67 113.776 59.7621 113.776 59.9001 113.822C59.9461 113.868 59.9461 113.868 59.9461 113.868V113.914C59.9461 113.914 59.9461 114.052 59.9461 114.144C59.9001 115.064 59.808 117.364 59.854 118.238C59.808 119.25 59.9 119.434 60.084 119.434ZM58.9801 112.074C59.0721 112.074 59.1181 112.028 59.2101 111.936C59.2561 111.798 59.302 111.568 59.164 111.2C59.118 111.062 59.0261 110.878 58.7501 110.694C58.4741 110.51 58.1521 110.51 57.8761 110.648C57.7841 110.694 57.738 110.694 57.692 110.74C57.646 110.74 57.6461 110.786 57.6001 110.786C57.5541 110.832 57.5081 110.832 57.5081 110.878C57.3701 111.016 57.2781 111.2 57.1861 111.338C57.0941 111.522 57.0941 111.66 57.0481 111.798C57.0021 111.936 57.0021 112.074 56.9561 112.212C57.3241 112.166 57.6 112.12 57.784 112.12C57.922 112.12 58.0141 112.12 58.1061 112.12C58.7501 112.258 58.8881 112.258 58.9801 112.074C59.0261 111.982 59.026 111.89 58.934 111.798C58.842 111.706 58.6121 111.568 58.1981 111.476C57.9681 111.43 58.06 111.43 58.014 111.43C58.014 111.43 58.0141 111.43 58.0601 111.384L58.1061 111.338C58.1981 111.292 58.2901 111.292 58.3361 111.292C58.3821 111.292 58.4741 111.384 58.5201 111.43C58.6581 111.614 58.7041 111.798 58.7501 111.89C58.7961 112.028 58.8881 112.074 58.9801 112.074ZM55.0701 136.914C55.0241 136.914 55.024 137.006 55.024 137.098C55.024 137.19 55.1161 137.374 55.3001 137.604C55.4841 137.834 55.852 138.064 56.404 138.064C56.68 138.064 56.9561 137.972 57.2781 137.834C57.4161 137.742 57.6001 137.65 57.7381 137.512L57.8301 137.374C57.8761 137.328 57.876 137.236 57.922 137.19C57.968 137.144 57.9681 137.006 57.9681 136.96V136.822C58.1981 134.154 58.704 127.346 58.842 124.54C59.026 121.228 58.9341 120.63 58.7501 120.584C58.5661 120.584 58.3821 121.182 58.1061 124.448C57.8761 127.254 57.37 134.062 57.232 136.776V136.914V136.96C57.232 136.96 57.3241 136.96 57.2781 136.96H57.232H57.1861C57.1861 136.96 57.1861 136.96 57.1861 137.006C57.1861 137.006 57.1861 137.052 57.1401 137.052C57.0941 137.144 57.0021 137.236 56.9101 137.282C56.7261 137.42 56.496 137.466 56.312 137.512C55.944 137.558 55.668 137.466 55.484 137.328C55.3 137.19 55.2081 137.098 55.1161 137.052C55.1621 136.914 55.1161 136.868 55.0701 136.914Z" fill="#101828"/>
<path d="M58.888 119.526C58.98 119.526 59.072 119.296 59.164 118.514C59.302 117.686 59.532 116.352 59.67 114.006C59.67 113.73 59.716 113.454 59.716 113.086C59.716 112.902 59.716 112.764 59.67 112.534C59.67 112.488 59.67 112.442 59.624 112.35C59.578 112.258 59.578 112.212 59.532 112.12C59.44 111.982 59.348 111.89 59.256 111.844C58.842 111.568 58.428 111.476 58.014 111.43C57.784 111.384 57.554 111.384 57.278 111.43C57.14 111.476 57.002 111.476 56.864 111.568C56.68 111.66 56.542 111.844 56.496 112.074C56.496 112.166 56.45 112.35 56.45 112.488V112.534C56.266 113.638 56.128 114.788 55.944 116.03C55.852 116.628 55.806 117.272 55.76 117.87C55.714 118.192 55.714 118.468 55.714 118.79C55.714 118.928 55.714 119.112 55.714 119.25C55.714 119.342 55.714 119.756 55.944 119.94L56.082 120.032V120.124C56.082 120.354 56.036 120.538 56.036 120.768C55.99 121.182 55.944 121.596 55.944 121.964C55.852 122.746 55.806 123.482 55.76 124.218C55.622 125.598 55.53 126.84 55.438 127.76C54.978 133.142 55.024 134.2 55.208 134.2C55.392 134.2 55.622 133.234 56.174 127.898C56.266 126.978 56.404 125.736 56.542 124.356C56.588 123.666 56.68 122.884 56.772 122.102C56.818 121.688 56.864 121.32 56.864 120.906C56.864 120.676 56.91 120.492 56.91 120.262V120.032C56.91 119.94 56.956 119.802 56.91 119.71L56.496 119.434C56.496 119.572 56.496 119.158 56.496 118.882C56.496 118.606 56.542 118.284 56.542 117.962C56.588 117.364 56.68 116.766 56.726 116.122C56.864 114.926 57.048 113.73 57.186 112.672V112.626C57.186 112.488 57.232 112.396 57.232 112.258C57.278 112.258 57.324 112.212 57.416 112.212C57.554 112.166 57.738 112.166 57.922 112.212C58.29 112.258 58.612 112.35 58.842 112.488C58.888 112.534 58.934 112.534 58.934 112.58C58.888 112.58 59.21 112.396 59.072 112.488L59.026 112.534C58.888 112.626 58.934 112.58 58.934 112.626C58.934 112.626 58.934 112.626 58.934 112.672C58.98 112.81 58.98 112.948 58.98 113.086C58.98 113.362 58.98 113.684 58.98 113.914C58.888 116.214 58.704 117.64 58.704 118.514C58.75 119.25 58.796 119.526 58.888 119.526Z" fill="#101828"/>
<path d="M56.8181 112.534C56.8641 112.534 56.9561 112.396 57.0021 111.936C57.0481 111.706 57.0481 111.43 57.0941 111.016C57.0941 110.832 57.1401 110.556 57.0481 110.28C57.0021 110.142 56.9101 109.958 56.7721 109.82C56.6801 109.774 56.5881 109.682 56.4961 109.682C56.4501 109.682 56.4041 109.636 56.3581 109.636H56.3121H56.2661V109.59C56.2661 109.59 56.2201 109.452 56.1741 109.36C56.1281 109.268 56.0361 109.176 55.9441 109.084C55.7601 108.946 55.5301 108.854 55.3001 108.854C55.0701 108.854 54.8401 108.9 54.6101 109.038C54.5181 109.084 54.3801 109.176 54.2881 109.268L54.1961 109.36C54.1961 109.36 54.1961 109.36 54.1961 109.406H54.1501C54.1041 109.406 54.0581 109.406 53.9661 109.406C53.8741 109.406 53.7361 109.406 53.5981 109.452C53.4601 109.498 53.2301 109.59 53.1381 109.728C53.0921 109.82 53.0461 109.912 53.0461 110.004C53.0461 110.096 53.0001 110.142 53.0001 110.188C52.9541 110.648 52.9081 111.154 52.9081 111.706C52.8621 112.258 52.8621 112.856 52.8621 113.5C52.8621 113.822 52.8621 114.144 52.8621 114.512V114.65V114.742C52.8621 114.742 52.8621 114.788 52.8621 114.834C52.8621 114.926 52.9081 114.972 52.9081 115.064C52.9541 115.11 52.9541 115.202 53.0001 115.248C53.0921 115.386 53.2301 115.478 53.2761 115.524C53.2761 115.524 53.3221 115.478 53.3681 115.432L53.4141 115.386C53.4141 115.386 53.4141 115.386 53.3681 115.386H53.3221C53.0921 115.432 53.2761 115.386 53.2301 115.386C53.1841 116.536 53.0921 117.778 53.0001 119.02C52.9541 119.664 52.9081 120.308 52.9081 120.952L52.8621 121.412V121.642C52.8621 121.688 52.8621 121.734 52.8621 121.734V121.78V121.918C52.9081 122.24 52.9081 122.562 52.9541 122.884C53.1841 125.368 53.3681 127.714 53.5061 129.278C54.0121 134.752 54.2421 135.764 54.4261 135.764C54.6101 135.764 54.6561 134.752 54.2421 129.324C54.1041 127.76 53.9201 125.414 53.7361 122.884C53.6901 122.562 53.6901 122.24 53.6441 121.918C53.6441 121.734 53.6441 121.688 53.6441 121.504L53.6901 121.044C53.7361 120.4 53.7821 119.756 53.7821 119.112C53.8281 117.824 53.9201 116.628 53.9661 115.478C53.9661 115.386 53.9661 115.294 53.9201 115.156C53.8741 115.018 53.7821 114.926 53.7361 114.88C53.6441 114.788 53.6441 114.788 53.5981 114.788C53.5521 114.696 53.5521 114.696 53.5521 114.512C53.5521 114.19 53.5521 113.868 53.5521 113.546C53.5521 112.902 53.5981 112.35 53.5981 111.798C53.5981 111.246 53.6441 110.786 53.6901 110.372C53.7361 110.096 53.7361 110.142 53.7361 110.142C53.7821 110.096 54.0121 110.096 54.1501 110.096C54.3341 110.096 54.5181 110.142 54.7021 110.142C54.7481 110.05 54.7481 109.958 54.7941 109.866L54.8401 109.728C54.8401 109.728 54.8401 109.728 54.8861 109.682C54.9321 109.636 54.9781 109.59 55.0241 109.59C55.1161 109.544 55.2541 109.498 55.3921 109.498C55.5301 109.498 55.6221 109.544 55.6681 109.59C55.7141 109.636 55.7141 109.636 55.7601 109.682L55.8061 109.728C55.8061 109.728 55.8521 109.82 55.8521 109.866C55.8981 109.912 55.9901 110.004 56.0361 110.05C56.0821 110.096 56.1741 110.142 56.2661 110.188C56.3121 110.188 56.3581 110.188 56.3581 110.188C56.4041 110.188 56.4041 110.188 56.4041 110.188C56.4501 110.188 56.4501 110.188 56.4501 110.188C56.4961 110.188 56.5421 110.234 56.5421 110.234C56.5881 110.28 56.6341 110.326 56.6801 110.418C56.7721 110.602 56.7721 110.786 56.7721 110.97C56.7721 111.384 56.8181 111.66 56.8181 111.89C56.6801 112.396 56.7261 112.534 56.8181 112.534Z" fill="#101828"/>
<path d="M56.404 115.248C56.404 115.064 56.312 114.972 55.898 114.88C55.484 114.788 54.426 114.742 53.92 114.834C53.782 114.834 53.598 114.88 53.506 115.018C53.414 115.11 53.322 115.202 53.322 115.294C53.322 115.432 53.368 115.478 53.46 115.524C53.552 115.57 53.644 115.57 53.69 115.57C53.736 115.57 53.782 115.57 53.782 115.57C53.782 115.57 53.828 115.57 53.966 115.57C54.334 115.57 55.438 115.662 55.852 115.616C56.266 115.524 56.404 115.432 56.404 115.248Z" fill="#101828"/>
<path d="M168.368 18.2801C168.322 18.1421 168.046 18.0501 167.54 18.5101C167.31 18.6941 166.942 19.1541 166.666 19.6141C166.39 20.0741 166.206 20.5801 166.114 20.9021C165.93 21.6381 166.068 21.8221 166.252 21.8221C166.436 21.8681 166.574 21.7301 166.804 21.1321C166.896 20.8561 167.08 20.4421 167.31 20.0281C167.54 19.6141 167.816 19.2001 168 19.0161C168.368 18.5101 168.414 18.4641 168.368 18.2801Z" fill="white"/>
<path d="M102.358 85.67C102.174 85.624 102.036 85.762 101.438 86.82C100.886 87.832 99.506 90.362 99 91.466C98.402 92.754 98.402 93.03 98.586 93.122C98.77 93.214 98.954 93.03 99.644 91.834C100.242 90.822 101.576 88.246 102.036 87.188C102.496 86.038 102.496 85.716 102.358 85.67Z" fill="#101828"/>
</g>
</g>
<defs>
<clipPath id="clip0_3546_32632">
<rect width="290" height="158" rx="12" fill="white"/>
</clipPath>
<clipPath id="clip1_3546_32632">
<rect width="312" height="158" fill="white" transform="translate(-11)"/>
</clipPath>
</defs>
</svg>
