<svg width="88" height="102" viewBox="0 0 88 102" fill="none" xmlns="http://www.w3.org/2000/svg">
<path d="M87.1102 44.1103C87.1102 54.6496 83.3541 64.2359 77.0754 71.7479C69.1709 81.2221 57.2862 87.2205 43.9438 87.2205C31.1621 87.2205 19.7259 81.6706 11.8214 72.8691C5.0381 65.2449 0.889648 55.1541 0.889648 44.1103C0.889648 20.2847 20.1743 1 43.9999 1C67.8255 1 87.1102 20.2847 87.1102 44.1103Z" fill="#F1F3F9" stroke="#D6DBE8" stroke-width="1.5708" stroke-miterlimit="10"/>
<path d="M77.1315 71.748C69.227 81.2222 57.3422 87.2206 43.9999 87.2206C31.2182 87.2206 19.7819 81.6707 11.8774 72.8692C13.2229 71.8041 14.9047 70.851 16.9789 70.0101L18.5486 69.3935C21.5198 68.2162 25.3879 66.7587 30.6015 64.5723C31.7788 64.0678 32.7318 63.1708 33.2364 61.9935C33.5167 61.3769 33.6848 60.6481 33.6848 59.9193V50.2209C33.5167 49.9967 33.3485 49.8285 33.2364 49.6042C32.3955 48.3709 31.8349 46.9134 31.6667 45.3437L30.8258 44.9513C28.3031 45.5679 28.4712 42.877 27.8546 37.7195C27.5743 35.5892 27.9106 35.1407 28.8637 34.8044L29.6485 33.7392C24.8273 22.8075 27.2379 15.9682 32.003 13.5576C30.4334 10.0818 30.3212 8.84851 30.3212 8.84851C30.3212 8.84851 40.4681 10.5303 43.9999 9.85759C48.4287 8.96063 55.268 10.0258 57.7907 15.9121C61.9952 17.5939 63.677 20.2287 64.0134 23.1439C64.63 27.7408 61.9952 32.7862 61.4907 34.7483C61.5467 34.8604 61.6028 34.9165 61.6028 34.9725C62.2755 35.3089 62.4998 35.8695 62.2755 37.7195C61.6589 42.5967 61.827 45.624 59.3043 44.9513L57.0619 48.8755C56.9498 49.3239 56.9498 49.4921 56.8937 49.8285C56.7816 50.5573 56.8377 52.0148 56.8377 60.0314C56.8377 60.9845 57.118 61.8814 57.6225 62.7223C58.1831 63.5632 58.968 64.292 59.9771 64.6844C59.9771 64.6844 60.0331 64.6844 60.0892 64.7405C65.8634 67.1511 70.0118 68.7208 73.0391 69.898C74.6088 70.4026 75.9542 71.0753 77.1315 71.748Z" fill="white"/>
<path d="M61.6029 34.6922C61.8271 33.4589 61.2665 31.9453 60.8181 30.8802C60.762 30.712 60.6499 30.5438 60.5938 30.3196C58.6317 26.3953 54.3151 24.8257 50.1666 24.6014C39.5713 24.0408 38.6182 26.059 35.3107 23.0317C36.3198 24.6014 36.4319 27.012 34.8622 30.0393C33.741 32.1695 31.6107 33.1226 29.7607 33.7392C24.9395 22.8075 27.3501 15.9682 32.1152 13.5576C30.5456 10.0818 30.4334 8.84851 30.4334 8.84851C30.4334 8.84851 40.5803 10.5303 44.0561 9.85759C48.4848 8.96063 55.3242 10.0258 57.8469 15.9121C62.0514 17.5939 63.6771 20.2287 64.0695 23.1439C64.6862 27.6847 62.1074 32.6741 61.6029 34.6922Z" fill="#D6DBE8"/>
<path d="M77.1315 71.748C69.227 81.2222 57.3422 87.2206 43.9999 87.2206C31.2182 87.2206 19.7819 81.6707 11.8774 72.8692C13.2229 71.8041 14.9047 70.851 16.9789 70.0101L18.5486 69.3935C21.5198 68.2162 25.3879 66.7587 30.6015 64.5723C31.7788 64.0678 32.7318 63.1708 33.2364 61.9935C33.5167 61.3769 33.6848 60.6481 33.6848 59.9193V50.2209C33.5167 49.9967 33.3485 49.8285 33.2364 49.6042C32.3955 48.3709 31.8349 46.9134 31.6667 45.3437L30.8258 44.9513C28.3031 45.5679 28.4712 42.877 27.8546 37.7195C27.5743 35.5892 27.9106 35.1407 28.8637 34.8044L29.6485 33.7392C24.8273 22.8075 27.2379 15.9682 32.003 13.5576C30.4334 10.0818 30.3212 8.84851 30.3212 8.84851C30.3212 8.84851 40.4681 10.5303 43.9999 9.85759C48.4287 8.96063 55.268 10.0258 57.7907 15.9121C61.9952 17.5939 63.677 20.2287 64.0134 23.1439C64.63 27.7408 61.9952 32.7862 61.4907 34.7483C61.5467 34.8604 61.6028 34.9165 61.6028 34.9725C62.2755 35.3089 62.4998 35.8695 62.2755 37.7195C61.6589 42.5967 61.827 45.624 59.3043 44.9513L57.0619 48.8755C56.9498 49.3239 56.9498 49.4921 56.8937 49.8285C56.7816 50.5573 56.8377 52.0148 56.8377 60.0314C56.8377 60.9845 57.118 61.8814 57.6225 62.7223C58.1831 63.5632 58.968 64.292 59.9771 64.6844C59.9771 64.6844 60.0331 64.6844 60.0892 64.7405C65.8634 67.1511 70.0118 68.7208 73.0391 69.898C74.6088 70.4026 75.9542 71.0753 77.1315 71.748Z" stroke="#D6DBE8" stroke-width="1.5708" stroke-miterlimit="10"/>
<path d="M32.9648 49.1808C33.4746 50.0871 34.179 50.8021 35.0286 51.4818L42.7882 56.8625C44.6006 58.3918 47.206 58.4484 49.0751 56.9758L56.3249 50.4623C56.5515 50.2358 56.8232 49.7261 57.1248 48.7814" stroke="#D6DBE8" stroke-width="1.5708" stroke-miterlimit="10"/>
<path d="M61.1396 88.2819C60.8142 89.6649 60.326 91.1293 59.7566 92.3496C58.2108 95.3597 55.7702 97.719 52.7601 99.2647C49.6687 100.81 46.0078 101.461 42.3468 100.648C33.7233 98.8579 28.1913 90.3971 29.9811 81.7736C31.7709 73.1501 40.1503 67.5367 48.7738 69.4078C51.8652 70.0587 54.5499 71.6044 56.8278 73.7196C60.6515 77.5432 62.2785 83.0753 61.1396 88.2819Z" fill="#D6DBE8" stroke="#AAB1C5" stroke-width="1.5708" stroke-miterlimit="10"/>
<path d="M50.645 82.8592H47.7694V79.9837C47.7694 78.8482 46.8782 77.8152 45.601 77.8152C44.4656 77.8152 43.4326 78.7065 43.4326 79.9837V82.8592H40.5571C39.4217 82.8592 38.3887 83.7504 38.3887 85.0276C38.3887 85.6225 38.6001 86.1745 39.0051 86.5796C39.4102 86.9846 39.9622 87.196 40.5571 87.196H43.4326V90.0715C43.4326 91.207 44.3238 92.24 45.601 92.24C46.7365 92.24 47.7694 91.3487 47.7694 90.0715V87.196H50.645C51.7804 87.196 52.8134 86.3048 52.8134 85.0276C52.8134 83.7504 51.7804 82.8592 50.645 82.8592Z" fill="white" stroke="#AAB1C5" stroke-width="1.5708"/>
</svg>
