<svg width="112" height="102" viewBox="0 0 112 102" fill="none" xmlns="http://www.w3.org/2000/svg">
<path d="M38.6704 34.8867V26.9699C38.6704 19.0531 44.9332 12.55 52.8786 12.55C60.637 12.55 67.0868 18.9589 67.0868 26.9699V34.8867" stroke="#D6DBE8" stroke-width="1.77051" stroke-miterlimit="10" stroke-linecap="round" stroke-linejoin="round"/>
<path d="M87.2773 93.698C87.6512 93.5092 87.7447 93.3204 88.1186 93.226" stroke="#789CFF" stroke-width="0.572346" stroke-linecap="round" stroke-linejoin="round"/>
<path d="M10.1606 100.389H110.459" stroke="#D6DBE8" stroke-width="1.8695" stroke-miterlimit="10" stroke-linecap="round" stroke-linejoin="round"/>
<path d="M1 100.389H5.11289" stroke="#D6DBE8" stroke-width="1.8695" stroke-miterlimit="10" stroke-linecap="round" stroke-linejoin="round"/>
<path d="M94.3815 19.9015H14.741V100.389H94.3815V19.9015Z" fill="#F1F3F9" stroke="#D6DBE8" stroke-width="1.8695" stroke-miterlimit="10"/>
<path d="M94.5683 19.9015H36.8943V100.389H94.4748V19.9015H94.5683Z" fill="white" stroke="#D6DBE8" stroke-width="1.8695" stroke-miterlimit="10"/>
<path d="M25.771 19.9015H14.741V100.389H25.771V19.9015Z" fill="#F1F3F9" stroke="#D6DBE8" stroke-width="1.8695" stroke-miterlimit="10"/>
<path d="M36.8945 100.389H14.741V100.2L25.9579 88.9847L36.8945 100.389Z" fill="#F1F3F9" stroke="#D6DBE8" stroke-width="1.8695" stroke-miterlimit="10"/>
<path d="M50.822 37.8084C52.4111 37.8084 53.7198 36.489 53.7198 34.8868C53.7198 33.2846 52.4111 31.9651 50.822 31.9651C49.233 31.9651 47.9243 33.2846 47.9243 34.8868C47.9243 36.489 49.233 37.8084 50.822 37.8084Z" fill="#D6DBE8"/>
<path d="M79.2385 37.8084C80.8276 37.8084 82.1363 36.489 82.1363 34.8868C82.1363 33.2846 80.8276 31.9651 79.2385 31.9651C77.6495 31.9651 76.3408 33.2846 76.3408 34.8868C76.4343 36.489 77.6495 37.8084 79.2385 37.8084Z" fill="#D6DBE8"/>
<path d="M50.822 34.8867V26.9699C50.822 19.0531 57.0848 12.55 65.0302 12.55C72.7886 12.55 79.2384 18.9589 79.2384 26.9699V34.8867" stroke="#D6DBE8" stroke-width="1.77051" stroke-miterlimit="10" stroke-linecap="round" stroke-linejoin="round"/>
<path d="M88.2999 9.30774C90.3185 8.00307 92.6994 7.27246 95.2356 7.27246C102.171 7.27246 107.813 12.9086 107.813 19.9016C107.813 26.8946 102.171 32.5308 95.2356 32.5308C88.2999 32.5308 82.6582 26.8946 82.6582 19.9016C82.5547 15.4658 84.832 11.6039 88.2999 9.30774Z" fill="white" stroke="#D6DBE8" stroke-width="1.8695" stroke-miterlimit="10"/>
<path fill-rule="evenodd" clip-rule="evenodd" d="M97.2114 14.2532C96.4004 13.949 95.5066 13.8157 94.5774 13.8938C91.2231 14.1753 88.6708 17.1035 88.8793 20.4269C89.0878 23.7502 91.9788 26.2216 95.3332 25.94C97.6108 25.7488 99.5187 24.3368 100.444 22.4102C100.651 21.9774 100.81 21.5185 100.911 21.0416C101.023 20.5151 101.066 19.9666 101.031 19.4068C101.009 19.0579 101.279 18.7505 101.633 18.7208C101.987 18.6911 102.292 18.9502 102.314 19.2991C102.356 19.9757 102.304 20.6386 102.169 21.275C102.046 21.8524 101.854 22.4079 101.603 22.9319C100.483 25.265 98.1707 26.9728 95.4125 27.2043C91.352 27.5452 87.849 24.5575 87.5966 20.5346C87.3442 16.5116 90.4376 12.9702 94.4981 12.6294C95.8089 12.5193 97.0615 12.7562 98.1653 13.2626L99.195 12.1935L100.616 16.1781L96.5077 14.9839L97.2114 14.2532Z" fill="#9FA6BA"/>
<path d="M56.034 60.7101C52.823 60.7101 50.1258 58.6387 49.0983 55.6611C48.8414 55.0138 49.2267 54.3665 49.8689 54.1076C50.5111 53.8487 51.1533 54.2371 51.4102 54.8844C52.0524 56.8263 53.979 58.2503 56.034 58.2503C58.089 58.2503 60.0156 56.9557 60.6578 54.8844C60.9146 54.2371 61.5568 53.8487 62.199 54.1076C62.8412 54.3665 63.2265 55.0138 62.9697 55.6611C61.9422 58.7682 59.2449 60.7101 56.034 60.7101Z" fill="#9FA6BA"/>
<path d="M75.4285 60.7101C72.2175 60.7101 69.5203 58.6387 68.4928 55.6611C68.2359 55.0138 68.6213 54.3665 69.2634 54.1076C69.9056 53.8487 70.5478 54.2371 70.8047 54.8844C71.4469 56.8263 73.3735 58.2503 75.4285 58.2503C77.4835 58.2503 79.4101 56.9557 80.0523 54.8844C80.3092 54.2371 80.9514 53.8487 81.5936 54.1076C82.2358 54.3665 82.6211 55.0138 82.3642 55.6611C81.3367 58.7682 78.6395 60.7101 75.4285 60.7101Z" fill="#9FA6BA"/>
<path d="M65.7956 76.5613C67.4271 76.5613 68.7497 75.2282 68.7497 73.5837C68.7497 71.9392 67.4271 70.6061 65.7956 70.6061C64.1641 70.6061 62.8416 71.9392 62.8416 73.5837C62.8416 75.2282 64.1641 76.5613 65.7956 76.5613Z" fill="#9FA6BA"/>
<path d="M15.0933 25.8174L14.5849 23.4153L24.6909 21.2412L25.1992 23.6433L19.9208 32.7697L26.9355 31.2607L27.4438 33.6627L16.8623 35.9392L16.354 33.5371L21.6324 24.4106L15.0933 25.8174Z" fill="#9FA6BA"/>
<path d="M23.1264 43.6375L22.7178 41.9286L29.3784 40.3097L29.787 42.0186L26.6195 48.6006L31.2214 47.4821L31.6299 49.1911L24.606 50.8982L24.1974 49.1893L27.3649 42.6073L23.1264 43.6375Z" fill="#9FA6BA"/>
</svg>
